<svg width="204" height="71" viewBox="0 0 204 71" fill="none" xmlns="http://www.w3.org/2000/svg"><path d="M38.0146 23.5858L34.8276 26.7992L31.6406 23.5858L34.8276 20.3724L38.0146 23.5858ZM45.7896 15.7465L51.2531 21.2905L54.44 18.0771L48.9765 12.5332L45.7896 9.31981L42.6025 12.5332L37.1041 18.0771L40.2911 21.2905L45.7896 15.7465ZM56.7514 20.3724L53.5644 23.5858L56.7514 26.7992L59.9385 23.5858L56.7514 20.3724ZM45.7896 31.3897L40.3261 25.8811L37.1041 29.0944L42.5675 34.603L45.7545 37.8165L48.9415 34.603L54.44 29.0944L51.2531 25.8811L45.7896 31.3897ZM45.7896 26.7992L48.9765 23.5858L45.7896 20.3724L42.6025 23.5858L45.7896 26.7992ZM79.5158 27.117V27.0816C79.5158 24.9983 78.3951 23.9389 76.6089 23.2327C77.7296 22.597 78.6402 21.6083 78.6402 19.8427V19.8074C78.6402 17.3356 76.679 15.7465 73.527 15.7465H66.3124V31.3897H73.7021C77.2044 31.3897 79.5158 29.9772 79.5158 27.117ZM75.2431 20.443C75.2431 21.6083 74.2976 22.1027 72.7915 22.1027H69.6396V18.7834H73.0018C74.4376 18.7834 75.2431 19.3484 75.2431 20.4077V20.443ZM76.1187 26.6932C76.1187 27.8585 75.2081 28.3882 73.7021 28.3882H69.6396V24.9629H73.5971C75.3482 24.9629 76.1187 25.5985 76.1187 26.6578V26.6932ZM86.6603 31.3897V15.7465H83.2631V31.3897H86.6603ZM105.012 31.3897V15.7465H101.65V25.3867L94.3652 15.7465H91.2133V31.3897H94.5753V21.4671L102.105 31.4249H105.012V31.3897ZM123.924 31.3897L117.27 15.6406H114.118L107.463 31.3897H110.931L112.367 27.8939H118.916L120.352 31.3897H123.924ZM117.725 24.857H113.592L115.659 19.7721L117.725 24.857ZM140.174 31.3897V15.7465H136.812V25.3867L129.527 15.7465H126.375V31.3897H129.737V21.4671L137.267 31.4249H140.174V31.3897ZM157.825 28.8825L155.654 26.6578C154.428 27.7878 153.342 28.494 151.591 28.494C148.93 28.494 147.108 26.2695 147.108 23.5858V23.5505C147.108 20.8668 149 18.6774 151.591 18.6774C153.132 18.6774 154.358 19.3484 155.549 20.443L157.72 17.9006C156.284 16.4528 154.533 15.4994 151.591 15.4994C146.828 15.4994 143.501 19.1365 143.501 23.5858V23.6211C143.501 28.1058 146.898 31.6722 151.451 31.6722C154.428 31.6722 156.214 30.6128 157.825 28.8825ZM172.359 31.3897V28.3175H163.954V25.0336H171.274V21.9614H163.954V18.7834H172.254V15.7112H160.557V31.3544H172.359V31.3897Z" fill="#9999AD"/><path d="M84.1763 45.7378C84.1763 40.9586 80.7864 37.8837 75.4218 37.8837H66.3379V61.279H70.3862V53.7591H74.961C80.0295 53.7591 84.1763 51.0185 84.1763 45.7378ZM80.0624 45.8381C80.0624 48.3448 78.1534 50.0493 75.0926 50.0493H70.3862V41.627H75.0926C78.1205 41.627 80.0624 43.0641 80.0624 45.8381Z" fill="#9999AD"/><path d="M111.393 49.5479C111.393 42.9304 106.457 37.4826 99.3805 37.4826C92.3043 37.4826 87.3018 42.9971 87.3018 49.6147C87.3018 56.2322 92.2385 61.6802 99.3147 61.6802C106.391 61.6802 111.393 56.1655 111.393 49.5479ZM107.148 49.6147C107.148 54.1936 103.955 57.9033 99.3805 57.9033C94.8057 57.9033 91.5474 54.1267 91.5474 49.5479C91.5474 44.9692 94.7399 41.2593 99.3147 41.2593C103.889 41.2593 107.148 45.0359 107.148 49.6147Z" fill="#9999AD"/><path d="M139.356 49.5479C139.356 42.9304 134.42 37.4826 127.343 37.4826C120.267 37.4826 115.265 42.9971 115.265 49.6147C115.265 56.2322 120.201 61.6802 127.278 61.6802C134.354 61.6802 139.356 56.1655 139.356 49.5479ZM135.111 49.6147C135.111 54.1936 131.918 57.9033 127.343 57.9033C122.769 57.9033 119.51 54.1267 119.51 49.5479C119.51 44.9692 122.703 41.2593 127.278 41.2593C131.852 41.2593 135.111 45.0359 135.111 49.6147Z" fill="#9999AD"/><path d="M144.248 61.279H160.408V57.5359H148.296V37.8837H144.248V61.279Z" fill="#9999AD"/></svg>