<svg width="69" height="69" viewBox="0 0 69 69" fill="none" xmlns="http://www.w3.org/2000/svg"><rect x="0.928711" y="0.428589" width="68" height="68" rx="34" fill="white"/><g clip-path="url(#clip0_4047_51961)"><path d="M56.3134 18.0131C48.4656 17.985 40.7955 21.3884 35.5471 27.1979C33.6584 29.152 32.3992 31.5456 30.8845 33.7616C27.2567 38.7264 21.5937 41.5969 15.457 41.5938V50.523C23.3017 50.5542 30.9718 47.1383 36.2234 41.3288C38.1027 39.3747 39.3806 36.9842 40.8859 34.7651C44.5137 29.8065 50.1767 26.9361 56.3134 26.9392V18.0131Z" fill="url(#paint0_linear_4047_51961)"/><path d="M56.3121 41.5938C50.1785 41.5938 44.5124 38.7265 40.8846 33.7679C39.3855 31.5488 38.1045 29.1614 36.2283 27.2042C30.9892 21.3947 23.3066 17.9851 15.4619 18.0194V26.9486C22.2562 26.9143 28.5675 30.5702 31.9834 36.442C32.9869 38.1935 34.1837 39.8391 35.5519 41.3476C40.7973 47.154 48.4736 50.5698 56.3183 50.5418L56.3121 41.5969V41.5938Z" fill="#2A54FF"/></g><defs><linearGradient id="paint0_linear_4047_51961" x1="18.128" y1="47.3471" x2="53.8014" y2="21.0611" gradientUnits="userSpaceOnUse"><stop stop-color="#2A54FF"/><stop offset="0.52" stop-color="#2143CB"/><stop offset="1" stop-color="#2A54FF"/></linearGradient><clipPath id="clip0_4047_51961"><rect width="46.75" height="46.75" fill="white" transform="translate(12.6172 11.0536)"/></clipPath></defs></svg>