<svg width="204" height="71" viewBox="0 0 204 71" fill="none" xmlns="http://www.w3.org/2000/svg"><path d="M50.9386 34.834C50.9386 25.0224 50.9386 15.2109 50.9386 5.39932C50.9386 5.16725 51.0531 5.05122 51.2821 5.05122C52.6512 5.05122 54.0204 5.05122 55.3896 5.05122C55.4545 5.05122 55.5149 5.05122 55.5799 5.05122C55.668 5.05122 55.7098 5.10228 55.7145 5.19046C55.7145 5.25544 55.7145 5.31577 55.7145 5.38075C55.7145 25.041 55.7145 44.7012 55.7145 64.3615C55.7145 64.4079 55.7098 64.4543 55.7145 64.4961C55.7377 64.6492 55.6588 64.6724 55.5242 64.6724C54.0529 64.6724 52.5863 64.6724 51.115 64.6724C50.9665 64.6724 50.9201 64.6214 50.934 64.4821C50.9433 64.4125 50.934 64.3383 50.934 64.264C50.934 54.4524 50.934 44.6409 50.934 34.8293L50.9386 34.834Z" fill="#9999AD"/><path d="M61.9799 34.8665C61.9799 25.0457 61.9799 15.2248 61.9799 5.40863C61.9799 5.17347 62.1006 5.05589 62.3419 5.05589C63.7018 5.05589 65.0617 5.05589 66.4262 5.05589C66.4912 5.05589 66.5515 5.05589 66.6165 5.05589C66.7093 5.05125 66.7465 5.10231 66.7511 5.18585C66.7511 5.25083 66.7511 5.31116 66.7511 5.37614C66.7511 25.0364 66.7511 44.692 66.7511 64.3522C66.7511 64.7606 66.7279 64.6771 66.4309 64.6771C65.0524 64.6771 63.674 64.6771 62.2955 64.6771C62.2398 64.6771 62.1841 64.6725 62.1331 64.6771C62.0078 64.691 61.9753 64.626 61.9799 64.5147C61.9846 64.4404 61.9799 64.3708 61.9799 64.2965C61.9799 54.485 61.9799 44.6734 61.9799 34.8619V34.8665Z" fill="#9999AD"/><path d="M89.5817 32.7362C89.3264 33.1307 89.1918 33.5809 88.9876 33.9986C88.8577 34.2631 88.6906 34.4998 88.5745 34.769C88.44 35.0753 88.2914 35.3817 88.1708 35.6926C88.1011 35.869 87.9805 36.0082 87.9016 36.18C87.7159 36.5977 87.5256 37.02 87.3261 37.4331C87.2286 37.6373 87.094 37.8276 87.0012 38.0364C86.848 38.3753 86.7134 38.7187 86.5371 39.0482C86.4164 39.271 86.3003 39.4984 86.1797 39.7212C86.1611 39.7583 86.1286 39.7955 86.1193 39.8372C86.0961 39.9301 86.1054 40.0461 86.0219 40.1064C85.929 40.1714 85.8084 40.1343 85.7016 40.1343C85.2468 40.1343 84.7966 40.1343 84.3418 40.1343C84.2304 40.1343 84.1375 40.1157 84.1004 40.009C84.0029 39.7537 83.8127 39.5448 83.7291 39.2849C83.6224 38.9554 83.4321 38.663 83.3114 38.3428C83.2557 38.1896 83.1397 38.0736 83.0701 37.9297C82.8705 37.5073 82.6848 37.0804 82.4945 36.6534C82.4342 36.5141 82.3275 36.4074 82.2671 36.2681C82.0908 35.8644 81.9097 35.4606 81.7241 35.0614C81.6545 34.9083 81.5524 34.7737 81.4781 34.6251C81.3017 34.2492 81.1439 33.8686 80.9629 33.4973C80.8469 33.256 80.703 33.0286 80.5406 32.8058C80.5406 33.2745 80.5406 33.7387 80.5406 34.2074C80.5406 37.2892 80.5452 40.371 80.5499 43.4481C80.5499 43.4852 80.5406 43.5177 80.5359 43.5549C79.617 43.5549 78.698 43.5549 77.7837 43.5549C77.7837 43.4574 77.7744 43.3553 77.7744 43.2578C77.7744 38.4263 77.7744 33.5948 77.7744 28.7633C77.7744 28.5436 77.8843 28.4337 78.1039 28.4337C78.9858 28.4337 79.863 28.4337 80.7448 28.4337C81.0001 28.4337 81.0836 28.4709 81.1347 28.6937C81.1718 28.8747 81.26 29.0139 81.3621 29.1578C81.4178 29.2367 81.4549 29.3341 81.492 29.427C81.7102 29.9514 81.9608 30.4666 82.2207 30.9725C82.4899 31.5016 82.7405 32.0446 83.0097 32.5737C83.3764 33.2931 83.7245 34.0218 84.0772 34.7505C84.3928 35.3956 84.7038 36.0454 85.0194 36.6905C85.0519 36.7601 85.0704 36.8483 85.1679 36.8947C85.3489 36.4445 85.632 36.0454 85.7898 35.5812C85.9151 35.2192 86.1101 34.8804 86.3003 34.5416C86.4814 34.2214 86.6345 33.8965 86.7691 33.553C86.9083 33.1956 87.1033 32.8568 87.2889 32.518C87.4607 32.2071 87.6138 31.8868 87.7438 31.5527C87.883 31.1953 88.0733 30.8518 88.2589 30.513C88.4353 30.1928 88.6024 29.8725 88.7277 29.5291C88.853 29.1949 89.048 28.8839 89.2058 28.5591C89.2661 28.4337 89.3682 28.4384 89.4749 28.4384C90.0273 28.4384 90.5796 28.4384 91.1365 28.4384C91.4892 28.4384 91.842 28.4384 92.1994 28.4384C92.3943 28.4384 92.4082 28.457 92.4175 28.6565C92.4175 28.6937 92.4175 28.7308 92.4175 28.7633C92.4175 33.6134 92.4175 38.4634 92.4175 43.3135C92.4175 43.3971 92.4128 43.476 92.4082 43.5595C91.4892 43.5595 90.5749 43.5595 89.656 43.5595C89.656 43.462 89.6467 43.3599 89.6467 43.2625C89.6467 40.241 89.6467 37.2196 89.6513 34.1982C89.6513 33.7201 89.6606 33.2374 89.6699 32.7594C89.6838 32.7362 89.6884 32.7083 89.6606 32.699C89.6281 32.6851 89.6003 32.699 89.5817 32.7362Z" fill="#9999AD"/><path d="M84.2538 6.34151C84.342 6.34151 84.4348 6.35079 84.523 6.35543C84.6483 6.39256 84.7736 6.42041 84.9036 6.40648C84.9221 6.40648 84.9361 6.41113 84.9546 6.41113C85.0614 6.43433 85.1681 6.48074 85.2795 6.46218C85.9386 6.61534 86.5791 6.81027 87.1453 7.20942C87.9297 7.76172 88.3706 8.50896 88.5516 9.44185C88.6444 9.91989 88.6769 10.3887 88.6073 10.8667C88.5237 11.4004 88.3706 11.9063 88.0643 12.3658C87.8043 12.7603 87.4655 13.0574 87.0757 13.3126C86.7601 13.5215 86.412 13.6422 86.0407 13.7071C85.9989 13.7118 85.9803 13.7443 85.9571 13.786C86.2681 13.8835 86.5883 13.916 86.8947 14.0227C87.5955 14.2687 88.1849 14.6586 88.6026 15.2712C88.909 15.7214 89.0807 16.232 89.141 16.775C89.2246 17.5176 89.141 18.2463 88.8718 18.9471C88.6305 19.5783 88.2267 20.0935 87.6837 20.4973C87.2242 20.8361 86.709 21.0588 86.166 21.212C85.8922 21.2909 85.623 21.3791 85.3399 21.3837C85.2424 21.3652 85.1496 21.3698 85.066 21.4255C84.9964 21.4301 84.9221 21.4348 84.8525 21.4441C84.6854 21.4255 84.5184 21.4348 84.3606 21.4812C82.2395 21.4812 80.1185 21.4812 77.9974 21.4858C77.7839 21.4858 77.7793 21.4858 77.7793 21.2631C77.7793 16.3341 77.7793 11.4051 77.7793 6.4761C77.7793 6.43897 77.7839 6.40184 77.7886 6.36935C77.8721 6.36935 77.951 6.36471 78.0346 6.36471C80.0396 6.36471 82.0399 6.36471 84.045 6.36471C84.1146 6.36471 84.1888 6.37864 84.2585 6.35079L84.2538 6.34151ZM84.0867 8.63427C83.9893 8.56001 83.8732 8.5693 83.7618 8.58322C83.7433 8.58322 83.7247 8.58322 83.7061 8.58322C83.6319 8.53681 83.5483 8.54145 83.4694 8.54145C82.5458 8.54145 81.6222 8.54145 80.6986 8.54145C80.6615 8.54145 80.6012 8.5136 80.6012 8.58786C80.5919 8.61571 80.5826 8.63891 80.5826 8.66676C80.5826 10.0313 80.5826 11.4004 80.578 12.765C80.578 12.9181 80.6429 12.9413 80.7729 12.9367C81.6965 12.932 82.6201 12.932 83.5437 12.9274C83.6783 12.9645 83.8036 12.9274 83.9243 12.8856C84.0403 12.8624 84.1563 12.8485 84.2724 12.816C85.1032 12.5932 85.6323 12.0827 85.7622 11.2148C85.8133 10.8667 85.804 10.5093 85.7297 10.1612C85.5858 9.47898 85.1867 9.01021 84.5369 8.75959C84.393 8.70389 84.2445 8.65748 84.0914 8.63891L84.0867 8.63427ZM84.1935 19.2441C84.2724 19.2673 84.3513 19.2627 84.4163 19.2023C84.5787 19.207 84.7226 19.1513 84.8757 19.0956C85.6415 18.8171 86.1289 18.3066 86.2403 17.4805C86.3099 16.9606 86.2588 16.4501 85.9989 15.9767C85.7808 15.5775 85.4559 15.3176 85.0196 15.1877C84.8711 15.1413 84.7365 15.0438 84.588 15.016C84.2724 14.9603 83.9521 14.8999 83.6226 14.8999C82.6804 14.9046 81.7383 14.8999 80.7915 14.8999C80.7218 14.8999 80.6476 14.8767 80.578 14.9371V19.2256C80.6104 19.3462 80.7125 19.2952 80.7822 19.2952C81.7522 19.2952 82.7176 19.2952 83.6876 19.2952C83.785 19.2952 83.8871 19.3045 83.98 19.2488C84.0496 19.2488 84.1239 19.2395 84.1935 19.2348V19.2441Z" fill="#9999AD"/><path d="M141.572 41.1183C142.018 41.1972 142.459 41.2807 142.877 41.4571C143.707 41.8144 144.302 42.3992 144.538 43.2857C144.784 44.1861 144.719 45.0679 144.283 45.9127C143.995 46.4696 143.564 46.8966 143.044 47.24C142.663 47.4907 142.259 47.6995 141.832 47.8388C141.456 47.9641 141.071 48.0662 140.686 48.1451C140.547 48.1729 140.408 48.1869 140.268 48.2054C140.189 48.1822 140.115 48.1961 140.046 48.2472C139.994 48.2472 139.939 48.2565 139.888 48.2611C139.758 48.2379 139.628 48.2565 139.507 48.3075C139.419 48.3075 139.326 48.3168 139.238 48.3214C138.69 48.3214 138.147 48.3214 137.6 48.3214C137.511 48.3168 137.419 48.3122 137.33 48.3075C137.224 48.2611 137.117 48.2425 137.001 48.2658C136.945 48.2611 136.894 48.2565 136.838 48.2518C136.769 48.2101 136.699 48.1869 136.616 48.2147C136.402 48.1915 136.189 48.1312 135.971 48.1404C135.864 48.1404 135.776 48.0615 135.678 48.0383C135.195 47.9362 134.759 47.7413 134.341 47.4628C133.966 47.2076 133.603 46.9523 133.358 46.5578C133.051 46.0751 133 45.5506 133.056 44.9983C133.084 44.9798 133.088 44.9566 133.079 44.9287C133.079 44.8823 133.023 44.8591 133.042 44.808C133.172 44.4646 133.316 44.1443 133.594 43.8752C134.054 43.425 134.597 43.179 135.205 43.0304C135.237 43.0212 135.279 43.0258 135.311 43.0212C135.372 43.0444 135.432 43.0304 135.479 42.9933C135.506 42.9701 135.52 42.9376 135.465 42.933C135.014 42.8123 134.68 42.5106 134.411 42.1625C134.193 41.8794 134.109 41.5267 134.123 41.16C134.137 40.8676 134.091 40.5567 134.249 40.2921C134.425 39.9951 134.611 39.7027 134.917 39.4938C135.195 39.3035 135.497 39.1689 135.799 39.0297C135.817 38.9462 135.743 38.9508 135.701 38.9276C135.321 38.7141 135.038 38.3892 134.722 38.0968C134.42 37.8183 134.304 37.4378 134.109 37.1036C133.998 36.9087 133.993 36.6627 133.952 36.4353C133.868 35.9665 133.882 35.4977 133.952 35.029C134.003 34.6623 134.086 34.3049 134.272 33.9893C134.43 33.7248 134.555 33.4185 134.838 33.2421C135.033 32.8847 135.409 32.7408 135.729 32.5459C136.082 32.3278 136.49 32.2025 136.894 32.105C137.108 32.0539 137.326 32.0215 137.544 31.9797C137.674 31.9982 137.804 31.989 137.924 31.9333C137.98 31.9333 138.031 31.9333 138.087 31.9286C138.449 31.9286 138.811 31.9286 139.178 31.9286C139.252 31.9286 139.321 31.9379 139.396 31.9379C139.479 31.989 139.572 31.9983 139.67 31.9843C140.254 32.0679 140.83 32.1978 141.359 32.4809C141.484 32.5459 141.619 32.597 141.735 32.6759C141.846 32.7501 141.907 32.7084 141.986 32.6295C142.157 32.4624 142.227 32.2396 142.329 32.0307C142.496 31.6826 142.547 31.2974 142.612 30.9076C142.956 30.9865 143.239 31.2139 143.568 31.2649C143.981 31.3346 144.357 31.5063 144.756 31.6177C144.956 31.6734 144.961 31.6873 144.896 31.9008C144.747 32.4113 144.524 32.8847 144.097 33.2235C143.754 33.4974 143.378 33.7201 142.928 33.8083C143.095 34.1054 143.234 34.4024 143.327 34.7319C143.485 35.2982 143.536 35.8737 143.406 36.4399C143.313 36.8576 143.211 37.28 142.974 37.6513C142.751 37.9947 142.487 38.3057 142.162 38.5563C141.744 38.8765 141.275 39.1133 140.774 39.2757C140.431 39.3871 140.083 39.4892 139.716 39.5078C139.619 39.4846 139.526 39.4985 139.438 39.5495C139.368 39.5495 139.294 39.5588 139.224 39.5588H138.133C138.078 39.5588 138.027 39.5542 137.971 39.5495C137.883 39.5078 137.79 39.4846 137.697 39.5124C137.535 39.5078 137.377 39.4985 137.214 39.4938C137.168 39.3685 137.089 39.3546 136.987 39.4335C136.871 39.4846 136.764 39.5542 136.671 39.6377C136.384 39.8791 136.328 40.1993 136.398 40.5428C136.453 40.8073 136.755 41.0022 137.103 41.0301C137.2 41.0997 137.312 41.0719 137.419 41.0719C138.421 41.0719 139.428 41.0719 140.431 41.0719C140.575 41.0719 140.718 41.0997 140.862 41.0626C140.988 41.0672 141.113 41.0765 141.238 41.0811C141.345 41.1275 141.452 41.1461 141.568 41.1275L141.572 41.1183ZM138.245 33.7109C137.98 33.7248 137.743 33.8223 137.511 33.9429C137.363 34.0218 137.196 34.0961 137.103 34.2353C136.899 34.5324 136.681 34.8155 136.643 35.2007C136.602 35.6184 136.579 36.0268 136.681 36.4353C136.787 36.8669 137.01 37.2289 137.386 37.4703C138.092 37.9251 138.862 37.9529 139.605 37.6327C140.171 37.3914 140.551 36.9226 140.663 36.2914C140.732 35.9154 140.728 35.5395 140.649 35.1636C140.551 34.6948 140.343 34.3049 139.939 34.0311C139.674 33.8501 139.373 33.7758 139.066 33.7109C138.792 33.6273 138.514 33.632 138.24 33.7109H138.245ZM139.122 46.5067C139.308 46.5299 139.489 46.516 139.665 46.4557C139.739 46.465 139.795 46.4046 139.869 46.4C140.305 46.3814 140.718 46.2515 141.118 46.0797C141.419 45.9498 141.689 45.7734 141.897 45.5135C142.45 44.8173 142.18 43.9076 141.336 43.6431C141.085 43.5642 140.825 43.5224 140.561 43.5224C139.391 43.5224 138.222 43.5224 137.052 43.5224C136.732 43.5224 136.425 43.5967 136.138 43.7406C135.878 43.8705 135.641 44.0654 135.553 44.3207C135.33 44.9705 135.451 45.5042 135.966 45.908C136.398 46.2422 136.908 46.3861 137.442 46.4557C137.562 46.5114 137.692 46.5299 137.822 46.5021H137.934C138.314 46.5717 138.695 46.5578 139.071 46.5021C139.089 46.5021 139.108 46.5021 139.127 46.5021L139.122 46.5067Z" fill="#9999AD"/><path d="M84.4162 63.489C84.7364 63.4425 85.0288 63.3219 85.3073 63.1734C85.5347 63.0527 85.7157 62.867 85.906 62.6953C86.1845 62.4447 86.4212 62.1569 86.579 61.8228C86.7043 61.5628 86.8296 61.2937 86.8946 60.9827C87.0895 61.0709 87.2752 61.1451 87.4562 61.2333C88.0456 61.5164 88.6351 61.7995 89.2245 62.0827C89.4194 62.1755 89.4148 62.1801 89.3312 62.3983C88.9878 63.3079 88.4726 64.097 87.7161 64.7142C87.3077 65.0484 86.8528 65.299 86.3655 65.5079C85.9663 65.6796 85.5394 65.7585 85.1216 65.8792C85.0381 65.9024 84.9406 65.8885 84.8525 65.8931C84.7364 65.8745 84.6297 65.8885 84.5229 65.9349C84.4533 65.9349 84.379 65.9395 84.3094 65.9442H83.2187C83.1491 65.9442 83.0749 65.9349 83.0052 65.9349C82.9171 65.8885 82.8242 65.8745 82.7268 65.8977C82.6804 65.8977 82.6339 65.8838 82.5922 65.8838C82.2859 65.907 82.012 65.7678 81.7196 65.7121C81.3437 65.6378 81.0142 65.4568 80.6661 65.3222C80.318 65.1876 80.0349 64.9185 79.71 64.7235C79.348 64.5054 79.0741 64.1944 78.7956 63.902C78.5125 63.605 78.2294 63.2801 78.0391 62.8995C77.8813 62.5793 77.7096 62.2637 77.5657 61.9388C77.4915 61.7717 77.4497 61.5814 77.394 61.405C77.3105 61.1405 77.2223 60.8806 77.1619 60.6068C76.9067 59.4882 76.851 58.0634 76.9484 57.1444C76.9624 56.9912 76.902 56.8381 76.9809 56.6849C77.0505 56.555 76.9716 56.3972 77.0134 56.2533C77.0366 56.1605 77.0413 56.0676 77.0923 55.9748C77.1619 55.8495 77.1248 55.6917 77.1573 55.5571C77.213 55.325 77.3197 55.1023 77.3708 54.8748C77.4218 54.6613 77.5379 54.4896 77.6075 54.29C77.6725 54.0997 77.7189 53.9002 77.8349 53.7238C78.132 53.2736 78.4058 52.8141 78.7585 52.4057C79.399 51.6677 80.188 51.134 81.0838 50.7581C81.5433 50.5631 82.0167 50.4239 82.5179 50.3728C82.6154 50.3961 82.7082 50.3728 82.7917 50.3264C82.8289 50.3264 82.866 50.3218 82.8985 50.3171C83.047 50.3311 83.1955 50.3404 83.3348 50.2754C83.6225 50.2754 83.9103 50.2754 84.2027 50.2754C84.328 50.3357 84.4579 50.3311 84.5879 50.3125C84.6575 50.3171 84.7318 50.3218 84.8014 50.3264C84.8664 50.3821 84.9453 50.3821 85.0242 50.3682C85.6043 50.4564 86.1659 50.6095 86.695 50.8695C87.7393 51.3846 88.5469 52.1411 89.062 53.1947C89.1595 53.3943 89.2616 53.5892 89.3452 53.7934C89.4287 53.9976 89.4009 54.0301 89.1966 54.1322C88.7975 54.3318 88.403 54.5453 88.0038 54.7495C87.6929 54.9073 87.3726 55.0512 87.057 55.1951C86.9642 55.2369 86.8992 55.2322 86.8621 55.1023C86.8343 54.9955 86.7971 54.8841 86.76 54.782C86.4769 54.058 86.0452 53.45 85.3398 53.074C85.2052 53.0044 85.0613 52.9626 84.9174 52.9209C84.755 52.8745 84.5972 52.8095 84.4347 52.7631C84.3698 52.7074 84.2955 52.6981 84.212 52.7213C83.6132 52.6795 83.0238 52.7074 82.4576 52.9302C82.2209 53.023 82.0074 53.1483 81.7939 53.2783C81.1905 53.6449 80.8517 54.2158 80.55 54.8238C80.3505 55.2276 80.2391 55.6685 80.0906 56.0908C80.0395 56.2394 80.072 56.4111 80.0488 56.5782C79.8539 58.1005 79.8817 59.6089 80.4015 61.0755C80.7032 61.9295 81.2184 62.6303 82.0027 63.1084C82.4483 63.3822 82.9403 63.4936 83.4508 63.54C83.6643 63.5586 83.8871 63.54 84.1006 63.54C84.2166 63.5632 84.3234 63.5586 84.4255 63.4936L84.4162 63.489Z" fill="#9999AD"/><path d="M142.009 12.2266C141.429 12.3565 140.965 12.6489 140.636 13.1502C140.524 13.3173 140.496 13.5122 140.417 13.6932C140.255 14.0831 140.213 14.4915 140.213 14.9092C140.209 17.0024 140.209 19.0956 140.209 21.1888C140.209 21.2166 140.209 21.2445 140.209 21.2723C140.209 21.4812 140.227 21.4858 140.004 21.4858C139.624 21.4858 139.243 21.4858 138.863 21.4858C138.445 21.4858 138.027 21.4858 137.609 21.4858C137.41 21.4858 137.41 21.4858 137.405 21.277C137.405 21.2491 137.405 21.2213 137.405 21.1934C137.405 17.5036 137.405 13.8185 137.405 10.1287C137.674 10.0684 137.948 10.1009 138.217 10.1009C138.714 10.1009 139.211 10.073 139.712 10.1148C139.721 10.1659 139.726 10.2123 139.735 10.2633C139.717 10.2912 139.721 10.319 139.754 10.3376C139.726 10.5464 139.823 10.7414 139.847 10.941C139.865 11.1266 139.874 11.3122 139.93 11.4933C139.986 11.6743 139.99 11.8646 140.018 12.0502C140 12.1105 140.004 12.1662 140.051 12.2312C140.106 12.1802 140.116 12.1245 140.111 12.0641C140.339 11.4793 140.714 11.0059 141.197 10.6068C141.638 10.2494 142.153 10.0545 142.687 9.90596C142.859 9.85955 143.04 9.8549 143.211 9.82706C143.555 9.82706 143.903 9.82706 144.246 9.82706C145.411 9.96165 146.344 10.4675 146.906 11.5397C147.208 12.1152 147.338 12.7417 147.338 13.3869C147.342 16.0138 147.338 18.6454 147.338 21.2723C147.338 21.4765 147.337 21.4765 147.129 21.4765C146.34 21.4765 145.551 21.4765 144.762 21.4765C144.479 21.4765 144.516 21.4905 144.516 21.2259C144.516 18.9796 144.516 16.7286 144.516 14.4822C144.516 14.1295 144.483 13.7814 144.409 13.4333C144.284 12.8439 143.708 12.2405 143.086 12.208C142.817 12.1941 142.552 12.1616 142.283 12.1755C142.186 12.157 142.098 12.1662 142.014 12.2219L142.009 12.2266Z" fill="#9999AD"/><path d="M127.296 11.5257C127.909 12.273 128.294 13.1363 128.475 14.0784C128.698 15.2341 128.703 16.3944 128.457 17.5547C128.285 18.3623 127.969 19.1142 127.482 19.7825C127.134 20.2652 126.693 20.6504 126.192 20.9753C125.839 21.2027 125.454 21.3651 125.068 21.4905C124.85 21.5601 124.618 21.6668 124.372 21.6436C124.293 21.6297 124.219 21.6436 124.149 21.69C124.112 21.69 124.08 21.6947 124.043 21.6993C123.876 21.6808 123.713 21.6947 123.551 21.7457C123.333 21.7457 123.114 21.7457 122.901 21.7457C122.757 21.6993 122.613 21.6854 122.46 21.704C122.237 21.6761 122.015 21.7179 121.796 21.639C121.388 21.4858 120.933 21.444 120.566 21.1888C120.33 21.0263 120.07 20.9103 119.847 20.7154C119.592 20.4972 119.337 20.2652 119.123 20.0146C118.868 19.7175 118.585 19.4066 118.455 19.0306C118.357 18.7521 118.172 18.5108 118.139 18.1998C118.116 17.991 118.004 17.796 117.949 17.5825C117.875 17.2994 117.879 17.0163 117.842 16.7332C117.726 15.7818 117.796 14.8396 117.977 13.8974C118.069 13.4286 118.218 12.997 118.431 12.5793C118.608 12.2312 118.789 11.8924 119.039 11.5861C119.443 11.0895 119.917 10.695 120.488 10.4119C120.961 10.1751 121.467 10.0034 121.982 9.90132C122.168 9.86419 122.367 9.82706 122.567 9.82706C122.985 9.82706 123.402 9.82706 123.82 9.82706C123.89 9.82706 123.964 9.83634 124.033 9.83634C124.098 9.88739 124.177 9.89203 124.256 9.87811C124.966 9.99414 125.639 10.2216 126.247 10.6114C126.595 10.8342 126.916 11.0941 127.194 11.4051C127.185 11.4793 127.208 11.5211 127.292 11.5211L127.296 11.5257ZM122.571 11.9527C122.493 11.9759 122.414 11.9992 122.339 12.0224C121.699 12.208 121.29 12.6582 121.021 13.2384C120.85 13.6004 120.757 13.9949 120.706 14.4033C120.58 15.3362 120.571 16.2598 120.72 17.188C120.812 17.7543 120.984 18.288 121.323 18.7568C121.685 19.258 122.177 19.5458 122.79 19.6293C123.059 19.7082 123.333 19.7175 123.606 19.6293C123.69 19.6433 123.76 19.5876 123.834 19.5736C124.386 19.4808 124.785 19.1698 125.124 18.7429C125.263 18.5711 125.314 18.3623 125.403 18.1673C125.551 17.8471 125.658 17.5036 125.723 17.1602C125.881 16.3294 125.881 15.4847 125.774 14.6447C125.695 14.0274 125.528 13.4333 125.189 12.8995C124.929 12.4911 124.576 12.208 124.117 12.0409C123.736 11.9017 123.351 11.8692 122.952 11.8924C122.822 11.8785 122.692 11.8738 122.576 11.9481L122.571 11.9527Z" fill="#9999AD"/><path d="M95.5182 65.8838C94.938 65.8513 94.3857 65.6935 93.8798 65.4197C93.2486 65.0809 92.7195 64.6028 92.2693 64.0459C92.0605 63.7906 91.8702 63.526 91.731 63.2336C91.6288 63.0155 91.5221 62.7927 91.4803 62.5514C91.4478 62.3518 91.3504 62.1708 91.29 61.9805C91.174 61.6324 91.1647 61.2704 91.1276 60.913C91.0348 59.9894 91.0858 59.0705 91.2622 58.1562C91.3225 57.8313 91.4293 57.5249 91.5314 57.2233C91.6706 56.8195 91.9073 56.4482 92.1533 56.0908C92.3482 55.8123 92.5524 55.5478 92.7984 55.3204C92.9934 55.1394 93.2254 54.9908 93.4482 54.847C94.098 54.4246 94.8127 54.1786 95.5785 54.0765C95.7085 54.0951 95.8384 54.0904 95.9591 54.0301C96.3026 54.0115 96.646 54.0115 96.9941 54.0301C97.1009 54.0765 97.2076 54.0858 97.3236 54.0765C98.3725 54.2018 99.3286 54.5546 100.122 55.2786C100.916 56.0026 101.417 56.8937 101.677 57.9334C101.983 59.1401 102.007 60.3514 101.784 61.5675C101.57 62.7278 101.106 63.7628 100.248 64.6028C99.9366 64.9091 99.5839 65.1783 99.2033 65.3686C98.8274 65.5543 98.4375 65.7353 98.0105 65.8049C97.8342 65.8327 97.6717 65.907 97.4861 65.8977C97.3886 65.8792 97.2958 65.8884 97.2122 65.9395C97.1565 65.9395 97.1055 65.9441 97.0498 65.9488C96.6878 65.9488 96.3211 65.9488 95.9591 65.9488C95.9034 65.9488 95.8524 65.9441 95.7967 65.9395C95.7085 65.8884 95.6203 65.8792 95.5228 65.8977L95.5182 65.8838ZM96.9384 56.1326C96.6646 56.049 96.3907 56.049 96.1169 56.1279C95.9823 56.1326 95.8524 56.1558 95.727 56.2022C95.3511 56.3368 94.9845 56.5039 94.7292 56.8148C94.4554 57.149 94.279 57.5481 94.1305 57.9566C94.0376 58.2118 94.0191 58.4857 93.9819 58.7549C93.8473 59.711 93.8613 60.6671 94.0562 61.6185C94.149 62.0826 94.3068 62.5282 94.5807 62.918C94.9102 63.3822 95.3372 63.7024 95.9034 63.8138C95.9916 63.8463 96.0798 63.8881 96.1772 63.8556C96.3211 63.8556 96.4696 63.8741 96.6135 63.8649C97.4118 63.8092 98.0894 63.5307 98.4932 62.7881C98.6093 62.57 98.7392 62.3611 98.8274 62.129C98.9156 61.8923 98.9666 61.6371 99.013 61.3864C99.1523 60.6717 99.1476 59.9477 99.1012 59.2236C99.078 58.8848 99.0177 58.5507 98.9388 58.2211C98.8738 57.9566 98.7856 57.692 98.6603 57.446C98.3679 56.8612 97.9502 56.4064 97.2958 56.2208C97.1798 56.1883 97.0544 56.1651 96.9384 56.1372V56.1326Z" fill="#9999AD"/><path d="M122.353 56.4064C121.903 56.4621 121.518 56.671 121.161 56.9309C121.091 56.9819 121.045 57.0608 120.989 57.1351C120.483 57.7756 120.367 58.5228 120.362 59.3026C120.353 61.3261 120.362 63.3451 120.362 65.3686C120.362 65.4661 120.353 65.5682 120.348 65.6657C120.195 65.6657 120.042 65.6657 119.889 65.6657C119.118 65.6657 118.348 65.6564 117.582 65.6564C117.582 65.5682 117.573 65.4754 117.573 65.3872C117.573 61.7856 117.573 58.1887 117.573 54.5871C117.573 54.2436 117.522 54.2854 117.875 54.2854C118.473 54.2854 119.072 54.2854 119.671 54.2854C119.796 54.2854 119.847 54.3132 119.88 54.4478C119.968 54.8191 120 55.1951 120.07 55.571C120.121 55.8356 120.153 56.1094 120.195 56.3879C120.223 56.3647 120.251 56.3507 120.256 56.3275C120.334 55.9145 120.636 55.6267 120.864 55.3065C121.072 55.0048 121.355 54.7449 121.717 54.5917C121.917 54.5082 122.093 54.3736 122.302 54.29C122.683 54.1415 123.073 54.0626 123.472 54.0301C123.922 53.9976 124.368 54.0023 124.818 54.109C125.249 54.2111 125.649 54.3597 126.025 54.5917C126.577 54.9398 126.948 55.4271 127.19 56.0166C127.394 56.5178 127.487 57.0376 127.487 57.5807C127.487 60.0359 127.487 62.4957 127.487 64.9509C127.487 65.1876 127.482 65.4197 127.477 65.6564C126.623 65.6564 125.765 65.6564 124.911 65.6564C124.832 65.6564 124.748 65.6425 124.669 65.6378C124.669 63.6932 124.669 61.7439 124.665 59.7992C124.665 59.2562 124.693 58.7131 124.646 58.1701C124.623 57.887 124.581 57.6085 124.465 57.3393C124.214 56.7731 123.778 56.4807 123.184 56.3972C122.91 56.2997 122.636 56.3183 122.363 56.3972L122.353 56.4064Z" fill="#9999AD"/><path d="M125.951 34.3188C124.967 34.5462 124.438 35.2053 124.21 36.1475C124.127 36.4909 124.099 36.8436 124.099 37.201C124.099 39.2199 124.099 41.2435 124.099 43.2625C124.099 43.3599 124.089 43.462 124.085 43.5595C123.161 43.5595 122.242 43.5595 121.319 43.5595C121.319 43.4806 121.305 43.3971 121.305 43.3182C121.305 39.6934 121.305 36.0639 121.305 32.4391C121.305 32.3556 121.309 32.2767 121.314 32.1931C122.07 32.1931 122.832 32.1978 123.588 32.2024C123.621 32.5551 123.765 32.894 123.718 33.256C123.885 33.5623 123.783 33.9289 123.955 34.2817C124.247 33.5994 124.614 33.01 125.227 32.6016C125.825 32.1978 126.48 31.9889 127.19 31.9193C127.478 31.9193 127.77 31.9193 128.058 31.9193C128.095 31.9193 128.132 31.9193 128.169 31.9239C128.257 31.9657 128.345 31.9936 128.443 31.9704C128.684 32.0585 128.94 32.0864 129.185 32.1885C130.118 32.583 130.712 33.256 131.005 34.2213C131.144 34.6762 131.214 35.1357 131.214 35.6044C131.214 38.2128 131.214 40.8165 131.214 43.4249C131.214 43.4713 131.209 43.5131 131.204 43.5595C130.267 43.5595 129.334 43.5595 128.396 43.5595C128.396 43.462 128.387 43.3599 128.387 43.2625C128.387 40.9697 128.387 38.6769 128.387 36.3795C128.387 36.0686 128.359 35.7622 128.267 35.4652C128.072 34.8433 127.672 34.4395 127.018 34.3142C126.953 34.2585 126.879 34.2492 126.795 34.2724C126.614 34.2724 126.438 34.2724 126.257 34.2724C126.141 34.2446 126.034 34.2724 125.932 34.3188H125.951Z" fill="#9999AD"/><path d="M109.139 43.5595C109.139 43.462 109.13 43.3599 109.13 43.2624C109.13 40.9882 109.13 38.7094 109.13 36.4352C109.13 36.1335 109.098 35.8411 109.023 35.5534C108.852 34.885 108.448 34.4673 107.766 34.3188C107.682 34.2585 107.589 34.2492 107.492 34.2724C107.348 34.2724 107.204 34.2724 107.06 34.2724C106.93 34.2492 106.805 34.2631 106.684 34.3234C106.266 34.4023 105.891 34.5973 105.589 34.8757C105.361 35.08 105.208 35.3677 105.092 35.6648C104.907 36.1335 104.832 36.6208 104.832 37.1267C104.832 39.1735 104.832 41.2203 104.832 43.2671C104.832 43.3645 104.828 43.4667 104.823 43.5641C104.688 43.5641 104.554 43.5641 104.415 43.5641C103.63 43.5641 102.841 43.5688 102.057 43.5734C102.052 43.4945 102.043 43.411 102.043 43.3321C102.043 39.7026 102.043 36.0685 102.043 32.4391C102.043 32.3602 102.052 32.2767 102.057 32.1978C102.154 32.1978 102.256 32.207 102.354 32.207C103.013 32.207 103.672 32.207 104.331 32.2117C104.359 32.388 104.387 32.5644 104.415 32.7408C104.442 32.9171 104.484 33.0935 104.489 33.2699C104.489 33.4462 104.591 33.5948 104.572 33.7711C104.554 33.799 104.559 33.8268 104.591 33.8454C104.591 33.9893 104.605 34.1331 104.675 34.2677C104.675 34.2817 104.679 34.3049 104.688 34.3049C104.721 34.3049 104.721 34.2863 104.716 34.2631C104.842 33.7665 105.167 33.3813 105.491 33.0146C105.956 32.4855 106.582 32.2024 107.264 32.0446C107.487 31.9935 107.705 31.9146 107.942 31.9286C108.23 31.9286 108.522 31.9286 108.81 31.9286C108.847 31.9286 108.884 31.9286 108.921 31.9332C109.009 31.975 109.098 32.0028 109.195 31.9796C109.576 32.0585 109.942 32.1885 110.286 32.3695C111.098 32.8011 111.557 33.5112 111.799 34.3745C111.943 34.885 111.961 35.4048 111.957 35.9293C111.957 38.3752 111.957 40.8165 111.957 43.2624C111.957 43.3599 111.952 43.462 111.947 43.5595C111.014 43.5595 110.077 43.5595 109.144 43.5595H109.139Z" fill="#9999AD"/><path d="M107.548 65.9349C107.492 65.9349 107.441 65.9302 107.385 65.9256C107.292 65.8699 107.204 65.8281 107.102 65.9117C106.712 65.7539 106.29 65.6935 105.933 65.4475C105.752 65.3222 105.622 65.1551 105.454 65.0205C104.925 64.5889 104.679 63.9948 104.508 63.3636C104.461 63.1919 104.484 63.0109 104.443 62.8299C104.401 62.6674 104.438 62.4864 104.438 62.3147C104.438 59.7249 104.438 57.1305 104.438 54.5407C104.438 54.5314 104.438 54.5221 104.438 54.5128C104.438 54.2575 104.415 54.2808 104.67 54.2808C105.441 54.2808 106.211 54.2808 106.981 54.2808C107.255 54.2808 107.227 54.2622 107.227 54.5314C107.227 56.8056 107.227 59.0798 107.227 61.354C107.227 61.7067 107.274 62.0594 107.283 62.4075C107.283 62.4772 107.33 62.5189 107.353 62.5746C107.52 62.9877 107.729 63.3729 108.165 63.5678C108.318 63.6375 108.476 63.6932 108.643 63.6978C108.912 63.7767 109.186 63.786 109.455 63.6978C109.715 63.6839 109.943 63.5725 110.161 63.4518C110.838 63.0759 111.135 62.4447 111.298 61.7346C111.377 61.4004 111.395 61.0523 111.395 60.7089C111.395 58.676 111.395 56.6478 111.395 54.6149C111.395 54.5592 111.4 54.5035 111.395 54.4525C111.381 54.3272 111.418 54.2761 111.558 54.2761C112.393 54.2807 113.229 54.2807 114.059 54.2761C114.175 54.2761 114.226 54.3132 114.217 54.4293C114.212 54.4942 114.217 54.5546 114.217 54.6196C114.217 58.2026 114.217 61.781 114.217 65.364C114.217 65.4615 114.245 65.5636 114.194 65.6564C113.841 65.6564 113.488 65.661 113.14 65.6564C112.718 65.6518 112.291 65.675 111.869 65.6425C111.794 65.5311 111.878 65.3872 111.794 65.2758V65.2108C111.739 64.8813 111.702 64.5518 111.627 64.2269C111.59 64.0552 111.562 63.8695 111.562 63.6421C111.432 63.7906 111.349 63.9299 111.293 64.0737C111.126 64.5286 110.824 64.8767 110.458 65.1784C109.975 65.5682 109.423 65.791 108.81 65.8792C108.731 65.856 108.657 65.8792 108.587 65.9163C108.532 65.9163 108.481 65.9209 108.425 65.9256C108.132 65.9256 107.845 65.9256 107.552 65.9256L107.548 65.9349Z" fill="#9999AD"/><path d="M112.124 9.82703C112.212 9.83167 112.301 9.83631 112.393 9.84095C112.44 9.89201 112.5 9.89665 112.565 9.87344C113.168 10.0034 113.758 10.1612 114.282 10.5C114.477 10.6253 114.663 10.7692 114.839 10.9224C114.844 10.9641 114.83 11.0198 114.904 11.0152C114.927 11.0338 114.946 11.0523 114.969 11.0662C114.965 11.1359 115.002 11.173 115.071 11.1776C115.378 11.4422 115.559 11.7903 115.726 12.1476C115.893 12.5143 116 12.8995 116.06 13.2987C116.083 13.4518 116.032 13.5168 115.884 13.5214C115.786 13.5122 115.689 13.4843 115.605 13.5679C115.466 13.6468 115.303 13.605 115.164 13.6514C114.76 13.786 114.329 13.7999 113.925 13.9484C113.879 13.967 113.814 13.9438 113.763 13.9531C113.637 13.9809 113.609 13.916 113.6 13.8092C113.549 13.3451 113.363 12.9274 113.09 12.5561C113.015 12.454 112.941 12.3333 112.783 12.3147C112.695 12.3054 112.7 12.1848 112.602 12.1476C112.393 12.0687 112.184 11.9945 111.966 11.9341C111.693 11.832 111.419 11.8506 111.145 11.9341C110.973 11.9945 110.792 12.0223 110.62 12.0966C110.138 12.3054 109.804 12.6443 109.553 13.1084C109.293 13.5957 109.154 14.1062 109.08 14.6446C109.056 14.8024 108.987 14.9695 108.996 15.1134C109.005 15.2619 109.005 15.4151 109.005 15.5636C108.996 16.2737 109.042 16.9745 109.237 17.6568C109.428 18.3205 109.757 18.8913 110.347 19.2859C110.555 19.4251 110.787 19.5086 111.033 19.5597C111.117 19.6107 111.21 19.6293 111.307 19.6107C111.549 19.6015 111.785 19.6247 112.027 19.569C112.598 19.4437 112.987 19.1095 113.275 18.6222C113.47 18.288 113.586 17.9213 113.656 17.5315C114.25 17.6846 114.83 17.8285 115.41 17.9956C115.591 18.0466 115.777 18.0699 115.949 18.1441C116.116 18.2137 116.13 18.1952 116.083 18.3808C115.953 18.9285 115.754 19.4437 115.438 19.9171C115.048 20.5065 114.519 20.9288 113.902 21.2537C113.512 21.4579 113.085 21.5647 112.663 21.6854C112.56 21.7132 112.444 21.6947 112.338 21.6993C112.189 21.6807 112.041 21.6993 111.901 21.7411C111.702 21.7411 111.502 21.7411 111.303 21.7411C111.14 21.6947 110.978 21.6807 110.811 21.6946C110.639 21.6993 110.472 21.6575 110.309 21.6204C110.073 21.5693 109.827 21.5508 109.604 21.4626C109.149 21.2862 108.699 21.0959 108.314 20.7571C108.04 20.5158 107.789 20.2512 107.511 20.0145C107.399 19.9171 107.311 19.7825 107.232 19.6525C107.019 19.3183 106.805 18.9888 106.68 18.6082C106.578 18.2973 106.415 17.991 106.374 17.6707C106.262 16.8492 106.132 16.0231 106.221 15.1877C106.234 15.0716 106.23 14.9556 106.234 14.8349C106.234 14.8117 106.234 14.7931 106.234 14.7699C106.29 14.6539 106.234 14.524 106.262 14.4126C106.369 13.9438 106.462 13.4704 106.634 13.0248C106.931 12.2637 107.339 11.5629 107.966 11.0152C108.62 10.449 109.372 10.0777 110.226 9.92914C110.314 9.91521 110.398 9.89201 110.481 9.8688C110.597 9.89201 110.704 9.8688 110.806 9.82239C110.843 9.82239 110.88 9.82239 110.913 9.81775C111.312 9.81775 111.711 9.81775 112.115 9.81775L112.124 9.82703Z" fill="#9999AD"/><path d="M135.744 63.8092C136.106 63.7349 136.403 63.5725 136.681 63.3125C136.932 63.0758 137.066 62.7834 137.21 62.4957C137.317 62.2776 137.336 62.0176 137.401 61.7392C138.194 61.9527 139.02 62.1754 139.847 62.3982C139.605 64.1712 138.25 65.6378 136.245 65.8884C136.166 65.8652 136.092 65.8838 136.022 65.9256C135.966 65.9256 135.915 65.9302 135.86 65.9348H134.825C134.769 65.9348 134.718 65.9302 134.662 65.9256C134.574 65.8791 134.486 65.8606 134.388 65.8838C134.3 65.8838 134.207 65.8791 134.119 65.8745C134.031 65.8745 133.938 65.8931 133.873 65.8002C133.859 65.7817 133.827 65.7724 133.799 65.7724C133.488 65.7724 133.224 65.6285 132.95 65.5171C132.82 65.4661 132.685 65.4243 132.592 65.3036C132.518 65.2062 132.379 65.2294 132.281 65.1551C131.896 64.872 131.567 64.5332 131.246 64.1805C130.773 63.656 130.467 63.0434 130.272 62.375C130.021 61.5164 129.938 60.6346 129.961 59.7434C129.97 59.3072 130.012 58.8755 130.086 58.4485C130.128 58.2026 130.17 57.9566 130.248 57.7152C130.323 57.4832 130.388 57.2372 130.494 57.0237C130.629 56.7591 130.717 56.4667 130.917 56.2347C131.051 56.0815 131.149 55.9005 131.26 55.7288C131.274 55.7056 131.288 55.6824 131.311 55.6638C131.659 55.3482 131.966 54.9815 132.383 54.7448C132.875 54.4617 133.405 54.2807 133.948 54.1322C134.087 54.0951 134.245 54.0811 134.393 54.0626C134.523 54.0811 134.653 54.0765 134.774 54.0162C135.136 53.9976 135.498 53.9976 135.86 54.0162C135.943 54.0719 136.041 54.0719 136.134 54.0579C136.449 54.1322 136.774 54.174 137.085 54.2761C137.999 54.5731 138.723 55.1069 139.239 55.9284C139.531 56.3925 139.703 56.8937 139.786 57.4275C139.777 57.4553 139.777 57.4785 139.805 57.4971C139.809 57.5435 139.814 57.5899 139.819 57.641C139.777 57.641 139.749 57.6688 139.721 57.7013C139.252 57.8127 138.774 57.8869 138.31 58.0262C138.06 58.1004 137.786 58.0865 137.535 58.1933C137.447 58.2304 137.363 58.1979 137.354 58.0726C137.336 57.822 137.243 57.5899 137.164 57.3579C137.066 57.0747 136.913 56.8148 136.681 56.6292C136.421 56.4157 136.143 56.2208 135.785 56.1883C135.716 56.1836 135.651 56.1511 135.581 56.1372C135.4 56.0769 135.219 56.0769 135.038 56.1372C134.713 56.1604 134.421 56.2811 134.142 56.4342C133.53 56.7731 133.228 57.3486 133.024 57.9798C132.727 58.9127 132.699 59.878 132.787 60.8481C132.843 61.4328 132.973 61.9991 133.242 62.5235C133.47 62.9784 133.785 63.3543 134.245 63.591C134.458 63.7024 134.686 63.7859 134.931 63.8092C135.205 63.8927 135.475 63.8927 135.744 63.8092Z" fill="#9999AD"/><path d="M98.1815 18.4273C98.1815 18.3484 98.1908 18.2648 98.1908 18.1859C98.1908 16.2923 98.1908 14.3987 98.1908 12.5051C98.1908 12.4772 98.1908 12.4494 98.1908 12.4215C98.1908 12.1477 98.2233 12.1709 97.9494 12.1663C97.5874 12.1663 97.2254 12.1663 96.8634 12.1663C96.6638 12.1663 96.6592 12.1663 96.6592 11.9806C96.6592 11.354 96.6592 10.7321 96.6638 10.1056C97.0862 10.1056 97.5085 10.1009 97.9262 10.0916C98.0098 10.0916 98.1072 10.1334 98.1769 10.0452C98.1769 9.46043 98.1861 8.87563 98.1908 8.29084C98.1908 8.08198 98.1954 7.87777 98.2001 7.66891C98.3068 7.65963 98.4089 7.64571 98.5064 7.60394H98.5157C98.6271 7.6225 98.7384 7.6225 98.8406 7.55752C98.8777 7.55752 98.9148 7.55288 98.9473 7.54824C99.0633 7.56681 99.1701 7.56217 99.2722 7.50183C99.3093 7.50183 99.3464 7.49719 99.3789 7.49255C99.495 7.51111 99.6017 7.50183 99.7085 7.44613C99.727 7.44613 99.7456 7.44613 99.7642 7.44149C99.8941 7.4647 100.024 7.45078 100.145 7.39044C100.163 7.39044 100.182 7.39044 100.2 7.3858C100.312 7.40436 100.423 7.40436 100.525 7.33939C100.678 7.32082 100.832 7.3069 101.008 7.28369C101.013 8.2073 101.022 9.12626 101.027 10.0452C101.105 10.1427 101.212 10.0963 101.305 10.0963C102.261 10.1009 103.222 10.1009 104.178 10.1009C104.243 10.1473 104.22 10.2169 104.22 10.2773C104.22 10.8389 104.22 11.4005 104.22 11.962C104.22 12.1663 104.22 12.1709 104.011 12.1709C103.115 12.1709 102.215 12.1709 101.319 12.1709C101.254 12.1709 101.194 12.1709 101.129 12.1709C101.045 12.1709 101.017 12.208 101.022 12.2869C101.022 12.3426 101.022 12.3937 101.022 12.4494C101.022 14.2734 101.022 16.0927 101.022 17.9167C101.022 18.1813 101.045 18.4412 101.147 18.6872C101.328 19.1142 101.648 19.3602 102.108 19.4251C102.363 19.5133 102.619 19.504 102.874 19.4251C103.384 19.3741 103.825 19.1467 104.275 18.8589C104.354 19.2627 104.429 19.6386 104.498 20.0146C104.545 20.2791 104.586 20.5483 104.637 20.8129C104.656 20.9196 104.628 20.9521 104.563 21.0078C104.317 21.2167 104.02 21.3188 103.728 21.4255C103.366 21.5601 102.999 21.6993 102.605 21.704C102.475 21.6854 102.345 21.6993 102.219 21.7458C102.02 21.7458 101.82 21.7458 101.621 21.7458C101.495 21.6993 101.365 21.6854 101.235 21.7086C101.027 21.6761 100.804 21.7318 100.604 21.639C100.363 21.5276 100.098 21.4812 99.8709 21.3652C99.4671 21.1563 99.1144 20.8639 98.8359 20.488C98.4693 19.9867 98.2929 19.4205 98.2326 18.8079C98.2233 18.7011 98.2047 18.5944 98.1861 18.4876C98.1861 18.469 98.1861 18.4458 98.1861 18.4273H98.1815Z" fill="#9999AD"/><path d="M153.06 65.4475C152.656 65.6703 152.215 65.7724 151.774 65.8699C151.681 65.8931 151.579 65.8838 151.477 65.8884C151.166 65.8884 150.855 65.8884 150.544 65.8884C150.168 65.907 149.811 65.8327 149.49 65.6471C148.961 65.3361 148.52 64.9323 148.367 64.3104C148.284 63.967 148.219 63.6189 148.219 63.2569C148.228 61.5628 148.219 59.8641 148.219 58.1701C148.219 55.3343 148.219 52.4939 148.219 49.6581C148.219 49.5606 148.219 49.4585 148.223 49.361C149.156 49.3378 150.085 49.3471 151.017 49.361C151.017 49.4585 151.022 49.5606 151.022 49.6581C151.022 54.0115 151.022 58.3604 151.022 62.7138C151.022 62.8531 151.022 62.9877 151.068 63.1223C151.171 63.4239 151.366 63.6142 151.681 63.6699C151.867 63.7488 152.048 63.7442 152.229 63.6699C152.456 63.656 152.623 63.4796 152.874 63.4332C152.939 64.0923 153.004 64.7421 153.069 65.3918C153.064 65.415 153.055 65.4382 153.05 65.4614L153.06 65.4475Z" fill="#9999AD"/><path d="M142.287 65.6518C142.287 65.5589 142.283 65.4707 142.283 65.3779C142.283 61.781 142.283 58.1794 142.283 54.5824C142.283 54.2436 142.232 54.2854 142.585 54.2807C143.336 54.2807 144.088 54.2807 144.845 54.2807C145.077 54.2807 145.082 54.2807 145.082 54.5175C145.082 55.8959 145.082 57.2743 145.082 58.6528C145.082 60.8899 145.082 63.1316 145.082 65.3686C145.082 65.4661 145.109 65.5682 145.058 65.661C144.65 65.661 144.246 65.661 143.838 65.661C143.322 65.661 142.807 65.6518 142.292 65.6471L142.287 65.6518Z" fill="#9999AD"/><path d="M94.4825 10.1056C94.515 10.203 94.4964 10.3051 94.4964 10.4026C94.4964 13.9903 94.4964 17.5826 94.4964 21.1703C94.4964 21.3776 94.3912 21.4812 94.1808 21.4812C93.4289 21.4812 92.677 21.4812 91.9252 21.4812C91.7117 21.4812 91.707 21.4812 91.707 21.2584C91.707 19.4808 91.707 17.7033 91.707 15.9303C91.707 14.0274 91.707 12.1245 91.707 10.2216C91.707 10.1845 91.707 10.1473 91.7117 10.1148C92.6353 10.087 93.5589 10.0963 94.4825 10.1102V10.1056Z" fill="#9999AD"/><path d="M95.8987 43.5688C95.894 43.4899 95.8848 43.4063 95.8848 43.3274C95.8848 39.698 95.8848 36.0639 95.8848 32.4345C95.8848 32.3556 95.894 32.272 95.8987 32.1931C95.9962 32.1931 96.0983 32.2024 96.1957 32.2024C97.0172 32.2024 97.8434 32.2024 98.6649 32.207C98.6649 32.2906 98.6741 32.3695 98.6741 32.453C98.6741 36.0778 98.6741 39.698 98.6741 43.3228C98.6741 43.4017 98.6695 43.4852 98.6649 43.5641C98.5303 43.5641 98.3957 43.5641 98.2564 43.5641C97.4721 43.5641 96.6831 43.5688 95.8987 43.5734V43.5688Z" fill="#9999AD"/><path d="M115.173 43.5641C115.173 43.4899 115.164 43.4202 115.164 43.346C115.164 39.7026 115.164 36.0593 115.164 32.4159C115.164 32.3416 115.169 32.272 115.173 32.1978C116.092 32.1978 117.016 32.1978 117.935 32.1978C117.94 32.2767 117.953 32.3602 117.953 32.4391C117.953 36.0732 117.953 39.7073 117.953 43.3413C117.953 43.411 117.944 43.4852 117.94 43.5548C117.021 43.5548 116.097 43.5548 115.178 43.5548L115.173 43.5641Z" fill="#9999AD"/><path d="M134.05 10.1102C134.05 10.203 134.055 10.2912 134.055 10.384C134.055 13.9856 134.055 17.5826 134.055 21.1842C134.055 21.523 134.11 21.4812 133.748 21.4812C132.987 21.4812 132.226 21.4812 131.46 21.4812C131.265 21.4812 131.261 21.4812 131.261 21.3002C131.261 17.5826 131.261 13.865 131.261 10.1473C131.261 10.1288 131.261 10.1102 131.27 10.0916C131.924 10.0916 132.583 10.0916 133.238 10.0963C133.507 10.0963 133.776 10.0777 134.045 10.1102H134.05Z" fill="#9999AD"/><path d="M132.973 5.09303C134.314 5.31117 134.778 6.66641 134.142 7.66892C133.956 7.96131 133.683 8.18873 133.339 8.30012C133.27 8.32333 133.205 8.34653 133.135 8.3651C133.019 8.34653 132.912 8.3651 132.81 8.41615C132.453 8.42079 132.1 8.43936 131.77 8.25371C131.348 8.02165 131.097 7.66427 130.921 7.23728C130.898 7.18623 130.958 7.15838 130.954 7.11661C130.963 7.08876 130.954 7.06091 130.926 7.04699C130.893 6.83814 130.893 6.62464 130.926 6.41578C130.958 6.40186 130.958 6.37401 130.949 6.34616C130.926 6.08161 131.079 5.88204 131.218 5.69639C131.473 5.35294 131.835 5.15801 132.258 5.09303C132.494 5.09303 132.731 5.09303 132.968 5.09303H132.973Z" fill="#9999AD"/><path d="M92.6259 8.4069C92.3707 8.33728 92.1247 8.26302 91.9483 8.04488C91.8694 7.94742 91.7719 7.86387 91.6791 7.77569C91.461 7.56219 91.396 7.33013 91.3635 7.01917C91.3403 6.80567 91.3357 6.58754 91.3542 6.38332C91.3821 6.12341 91.4981 5.87279 91.6745 5.66393C91.939 5.34369 92.2871 5.1766 92.6863 5.0977C92.9415 5.0977 93.1968 5.0977 93.4474 5.0977C93.9533 5.19053 94.3571 5.44579 94.6263 5.88671C94.7145 6.03059 94.7841 6.18375 94.8119 6.35083C94.8027 6.37868 94.8073 6.40653 94.8351 6.42045C94.9465 7.14912 94.7006 7.73392 94.1018 8.15627C93.9301 8.2723 93.7352 8.38833 93.5031 8.37441C93.4242 8.36048 93.35 8.37441 93.2803 8.42082C93.155 8.42082 93.0297 8.42082 92.8998 8.42082C92.8069 8.38369 92.7141 8.32335 92.6213 8.41154L92.6259 8.4069Z" fill="#9999AD"/><path d="M97.5326 27.1853C98.7347 27.3477 99.1849 28.3595 99.0039 29.1903C98.9018 29.6637 98.6465 30.0303 98.2241 30.2763C97.9085 30.462 97.5605 30.5362 97.1984 30.513C97.0035 30.4991 96.8039 30.5409 96.6136 30.4573C96.2934 30.3181 96.0149 30.1464 95.82 29.8401C95.7132 29.673 95.5508 29.5105 95.5415 29.3202C95.5322 29.0835 95.5137 28.8422 95.5183 28.6055C95.5276 28.1831 95.7457 27.8629 96.0196 27.603C96.2609 27.3756 96.5765 27.2224 96.9292 27.1853C97.1288 27.1853 97.3284 27.1853 97.528 27.1853H97.5326Z" fill="#9999AD"/><path d="M116.803 27.1853C116.989 27.2131 117.17 27.2595 117.342 27.3292C118.024 27.5983 118.423 28.4013 118.298 29.1299C118.144 30.0071 117.388 30.5038 116.613 30.5177C116.423 30.5177 116.232 30.5084 116.042 30.5084C115.926 30.5084 115.852 30.4249 115.759 30.3784C115.299 30.1557 114.993 29.789 114.84 29.311C114.775 29.1067 114.78 28.884 114.803 28.6658C114.849 28.1692 115.026 27.7376 115.471 27.4684C115.712 27.3199 115.972 27.2085 116.26 27.1853C116.441 27.1853 116.627 27.1853 116.808 27.1853H116.803Z" fill="#9999AD"/><path d="M143.419 52.6099C143.271 52.5774 143.113 52.6145 142.974 52.5449C142.63 52.3732 142.306 52.1643 142.12 51.8116C141.967 51.5192 141.906 51.1943 141.93 50.8602C141.944 50.6931 141.948 50.5167 142.004 50.3635C142.125 50.0294 142.343 49.7602 142.64 49.5653C143.132 49.245 143.661 49.2032 144.222 49.3564C145.076 49.5885 145.508 50.3357 145.429 51.1015C145.373 51.6631 145.123 52.1272 144.584 52.3918C144.399 52.4799 144.222 52.5821 144.014 52.6053C143.814 52.6053 143.614 52.6099 143.415 52.6145L143.419 52.6099Z" fill="#9999AD"/></svg>