<svg width="69" height="69" viewBox="0 0 69 69" fill="none" xmlns="http://www.w3.org/2000/svg"><rect x="0.786133" y="0.428589" width="68" height="68" rx="34" fill="#172D3F"/><path d="M19.0894 46.613C20.6706 48.2899 29.3656 56.3246 43.0121 46.9992C52.8822 39.3144 52.6346 22.654 51.6872 17.6199C51.3571 18.3527 39.9058 43.4539 19.0894 46.613ZM51.6872 17.6166C51.5651 17.5671 38.8693 15.8373 26.3187 23.9216C18.5249 28.9392 17.4917 36.2873 17.8482 41.1959C36.0931 39.1427 51.2713 18.1943 51.6872 17.6166Z" fill="#00CA9A"/><path d="M51.6872 17.6166C51.5651 17.5671 38.8693 15.8373 26.3187 23.9216C18.5249 28.9392 17.4917 36.2873 17.8482 41.1959C36.0931 39.1427 51.2713 18.1943 51.6872 17.6166Z" fill="#00CA9A"/></svg>