<svg width="69" height="69" viewBox="0 0 69 69" fill="none" xmlns="http://www.w3.org/2000/svg"><g clip-path="url(#clip0_4047_51955)"><path d="M34.2861 68.2857C53.0638 68.2857 68.2861 53.0634 68.2861 34.2857C68.2861 15.508 53.0638 0.285706 34.2861 0.285706C15.5085 0.285706 0.286133 15.508 0.286133 34.2857C0.286133 53.0634 15.5085 68.2857 34.2861 68.2857Z" fill="#00F0FF"/><path d="M32.0141 28.62H42.6767L53.5846 40.9217C54.2943 41.7219 54.2979 43.0236 53.5919 43.8279L39.6031 59.7857H28.6191L31.9399 56.1214L44.1321 42.3702L32.0946 28.619" fill="#1B1B1B"/><path d="M36.5583 42.7857H25.8955L14.9875 30.484C14.278 29.6837 14.2744 28.3822 14.9803 27.5778L28.9691 11.619H39.9531L36.6324 15.2832L24.4401 29.0345L36.4776 42.7857" fill="#1B1B1B"/></g><defs><clipPath id="clip0_4047_51955"><rect width="68" height="68" fill="white" transform="translate(0.286133 0.285706)"/></clipPath></defs></svg>