<svg width="204" height="71" viewBox="0 0 204 71" fill="none" xmlns="http://www.w3.org/2000/svg"><path fill-rule="evenodd" clip-rule="evenodd" d="M31.6143 35.5075V26.7527L39.6305 26.8124C46.7593 26.8721 47.7219 26.9168 48.4588 27.1405C50.4591 27.7818 51.166 28.7513 51.2863 31.0033C51.3765 32.8676 51.1058 33.852 50.2486 34.6126C49.9177 34.9109 49.662 35.1793 49.6921 35.1943C49.6982 35.2003 49.7494 35.2313 49.8283 35.2789C49.9428 35.348 50.1156 35.4523 50.2937 35.5671C51.2412 36.1339 51.4668 36.8199 51.4668 39.251C51.4668 41.1898 51.4367 41.3986 51.0908 42.0996C50.6697 42.9199 50.023 43.4568 48.91 43.8893C48.2934 44.1279 47.4512 44.1578 39.9313 44.2025L31.6143 44.2473V35.5075ZM47.1804 41.339C47.4512 41.2196 47.752 40.9959 47.8422 40.8319C47.9324 40.6529 48.0076 39.8326 48.0076 38.9676C48.0076 37.506 47.9926 37.4016 47.6166 37.0586L47.2256 36.7006L41.1495 36.6559L35.0734 36.6111V39.0869V41.5478H40.8637C45.5261 41.5478 46.7593 41.503 47.1804 41.339ZM46.8345 33.7923C47.6918 33.5537 47.8572 33.1957 47.8572 31.6596C47.8572 30.4664 47.8272 30.3173 47.4812 29.9892L47.1203 29.6163H41.0893H35.0734V31.7789V33.9415H40.6833C44.0672 33.9415 46.5037 33.8818 46.8345 33.7923ZM55.2276 35.5075V26.7826H56.882H58.5363V35.5075V44.2323H56.882H55.2276V35.5075ZM70.417 29.6163V36.9243V44.2323H72.1466H73.8762V36.9243V29.6163H78.3129H82.7497V28.1994V26.7826H72.0714H61.3932V28.1994V29.6163H65.9051H70.417ZM85.4879 35.5522L85.533 26.8571L87.052 26.8124L88.5861 26.7677L93.7297 33.7923C96.5572 37.6402 98.9184 40.802 98.9636 40.7871C99.0237 40.7871 101.355 37.6402 104.152 33.7774L109.251 26.7826H110.665H112.078V35.5075V44.2323H110.499H108.92L108.89 38.3412L108.845 32.45L104.558 38.3263L100.272 44.2174H98.8282L97.3844 44.2323L93.0379 38.3263L88.6914 32.4053L88.6463 38.3263L88.6162 44.2323H87.037H85.4578L85.4879 35.5522ZM117.225 39.6296C115.642 41.9934 114.534 43.6475 114.438 43.7998L114.153 44.2323H116.093L118.018 44.2174L122.485 37.4016C124.936 33.6581 126.997 30.5857 127.042 30.5857C127.102 30.5857 129.132 33.6581 131.539 37.4016L135.915 44.2174H137.84C138.893 44.2323 139.75 44.2025 139.75 44.1727C139.75 44.0683 128.621 27.3493 128.35 27.051C128.17 26.8422 127.884 26.7826 126.982 26.7826L125.839 26.7975L120.274 35.0749C119.172 36.7225 118.124 38.2865 117.229 39.6238L117.225 39.6296ZM142.007 35.5075V26.7826H143.736H145.466V35.5075V44.2323H143.736H142.007V35.5075ZM149.301 26.8571L149.255 35.5522L149.225 44.2323H150.729H152.233L152.263 37.5805L152.309 30.9437L161.483 37.5805L170.657 44.2323H171.529H172.387V35.5075V26.7677L170.928 26.8124L169.454 26.8571L169.409 33.1659C169.394 36.626 169.334 39.4598 169.288 39.4598C169.243 39.4598 168.311 38.8035 167.228 37.9981C166.738 37.6384 165.698 36.8682 164.374 35.8867C162.733 34.6706 160.654 33.1302 158.64 31.6446L152.053 26.7677L150.669 26.8124L149.301 26.8571Z" fill="#9999AD"/></svg>