<svg width="69" height="69" viewBox="0 0 69 69" fill="none" xmlns="http://www.w3.org/2000/svg"><rect x="0.0712891" y="0.428589" width="68" height="68" rx="34" fill="black"/><g clip-path="url(#clip0_4047_51967)"><path d="M46.8835 16.6436C43.9442 14.3427 39.9205 13.2057 34.7838 13.2057H21.9991V14.9112H34.5555C38.9217 14.9112 42.8598 15.7503 45.2855 17.7535C47.7111 19.7567 49.509 22.6803 49.509 26.3077C49.509 29.8268 47.9109 32.3984 45.4281 34.3745C42.9454 36.3507 38.4365 37.2169 33.9562 37.2169H19.5449V38.9223H34.0703C39.4639 38.9223 43.6874 37.8124 46.7408 35.5927C49.7658 33.3729 51.3068 30.2328 51.3068 26.1994C51.3068 22.0847 49.8229 18.9175 46.8835 16.6436Z" fill="white"/><path d="M45.7993 19.08C43.9729 17.7535 41.8897 16.6978 35.9539 16.6978H26.0801V18.3491C26.0801 18.3491 30.5033 18.295 35.7256 18.3491C40.7767 18.4032 42.6316 18.9446 44.3439 20.1357C46.5127 21.6516 47.8825 23.5465 47.8825 26.1723C47.8825 28.7169 46.5127 30.5036 44.3153 32.0465C42.0894 33.6166 38.665 33.6166 37.2666 33.6707C36.753 33.6707 29.9326 33.6707 29.9326 33.6707V35.322C29.9326 35.322 33.3 35.3762 35.4117 35.322C40.206 35.2137 43.0597 34.943 45.7137 33.0752C48.1964 31.3157 49.5091 29.0147 49.5091 26.0911C49.5091 22.2472 47.4544 20.3252 45.7993 19.08Z" fill="white"/><path d="M44.9148 21.2727C43.545 20.4606 42.3464 19.9192 36.6675 19.9192H29.5618V21.002H36.4678C41.4903 21.002 43.3738 21.8412 43.973 22.1931C45.1145 22.8428 46.5985 23.9256 46.5985 26.0912C46.5985 27.4717 45.7423 29.2313 44.4582 29.908C43.2881 30.5307 41.1479 31.0991 37.4095 31.0991H14.2373V32.1819H37.4666C42.004 32.1819 43.545 31.6947 45.1431 30.8555C46.7411 30.0163 47.8256 28.2838 47.8256 26.0912C47.8256 23.6007 46.3702 22.1389 44.9148 21.2727Z" fill="white"/><path d="M49.4236 33.2651C46.4842 30.9642 42.4605 29.8272 37.3238 29.8272H28.7627V31.5326H37.067C41.4332 31.5326 45.3713 32.3989 47.797 34.375C50.2226 36.3511 52.049 39.3017 52.049 42.9291C52.049 46.4482 50.4794 49.0199 47.9682 50.996C45.4569 52.9721 40.9766 53.8384 36.4962 53.8384H22.085V55.5438H36.6104C42.0039 55.5438 46.2274 54.4339 49.2809 52.2142C52.3344 49.9944 53.8468 46.8543 53.8468 42.8208C53.8183 38.7333 52.3629 35.5661 49.4236 33.2651Z" fill="white"/><path d="M48.3398 35.7009C46.5134 34.4015 44.4302 33.3187 38.4945 33.3187H25.082V34.97C25.082 34.97 33.0439 34.9159 38.2662 34.97C43.3173 35.0241 45.1722 35.5655 46.8844 36.7566C49.0533 38.2726 50.423 40.1675 50.423 42.7932C50.423 45.3378 49.0533 47.1245 46.8559 48.6675C44.63 50.2375 41.2055 50.2375 39.8072 50.2917C39.2935 50.2917 32.4732 50.2917 32.4732 50.2917V51.9429C32.4732 51.9429 35.8691 51.9971 37.9523 51.9429C42.7465 51.8347 45.6003 51.5639 48.2542 49.6961C50.7369 47.9366 52.0497 45.6356 52.0497 42.712C52.0497 38.8952 50.0235 36.9461 48.3398 35.7009Z" fill="white"/><path d="M27.9375 41.3311H40.5224V40.4107H27.9375V41.3311Z" fill="white"/><path d="M33.1309 44.5534H40.4364V43.7684H33.1309V44.5534Z" fill="white"/><path d="M22.085 41.3311H25.7948V40.4107H22.085V41.3311Z" fill="white"/><path d="M19.7471 44.6071H31.0763V43.6867H19.7471V44.6071Z" fill="white"/><path d="M22.542 20.9203H26.9653V20.1623H22.542V20.9203Z" fill="white"/><path d="M19.4893 27.0923H29.5629V26.226H19.4893V27.0923Z" fill="white"/><path d="M19.7471 51.8349H30.3914V50.7521H19.7471V51.8349Z" fill="white"/><path d="M17.1211 55.4344H19.7751V53.8372H17.1211V55.4344Z" fill="white"/><path d="M23.7393 24.3862H40.462V23.52H23.7393V24.3862Z" fill="white"/><path d="M32.1016 27.0923H40.149V26.226H32.1016V27.0923Z" fill="white"/><path d="M47.4558 38.0559C46.086 37.2709 44.8874 36.7295 39.2085 36.7295H30.1908V37.7852H39.0373C44.0599 37.7852 45.9718 38.5973 46.5426 38.9222C47.6555 39.5448 49.168 40.5734 49.168 42.6849C49.168 44.0384 48.3119 45.7168 47.0277 46.3664C45.8577 46.962 43.7174 47.5034 39.979 47.5034H16.7783V48.5591H40.0076C44.545 48.5591 46.086 48.0989 47.6841 47.2868C49.2822 46.4747 50.338 44.8234 50.338 42.6849C50.3666 40.3298 48.9112 38.9222 47.4558 38.0559Z" fill="white"/></g><defs><clipPath id="clip0_4047_51967"><rect width="39.6667" height="42.5" fill="white" transform="translate(14.2383 13.1786)"/></clipPath></defs></svg>