<svg width="204" height="71" viewBox="0 0 204 71" fill="none" xmlns="http://www.w3.org/2000/svg"><mask id="mask0_543_17799" style="mask-type:luminance" maskUnits="userSpaceOnUse" x="31" y="8" width="142" height="55"><path d="M172.279 8.43085H31.7207V62.5691H172.279V8.43085Z" fill="white"/></mask><g mask="url(#mask0_543_17799)"><path d="M42.361 15.2762C44.9791 15.2762 47.1888 16.2129 48.9902 18.0384C50.7916 19.8878 51.7043 22.2416 51.7043 25.0759C51.7043 27.9101 50.7916 30.2639 48.9902 32.1133C47.1888 33.9628 44.9791 34.8755 42.361 34.8755C39.9832 34.8755 38.0857 34.0108 36.6205 32.2815V34.3231H31.7207V8.43085H36.6205V17.8702C38.0617 16.1409 39.9832 15.2762 42.361 15.2762ZM37.9656 28.9429C39.0224 29.8796 40.2474 30.36 41.6645 30.36C43.0816 30.36 44.2825 29.9036 45.2913 28.9669C46.3001 28.0302 46.8045 26.7572 46.8045 25.0759C46.8045 23.4186 46.3001 22.1215 45.2673 21.1848C44.2585 20.2481 43.0335 19.7917 41.6164 19.7917C40.1993 19.7917 38.9744 20.2481 37.9416 21.1848C36.9088 22.0975 36.4044 23.3945 36.4044 25.0278C36.3803 26.7091 36.9088 28.0061 37.9656 28.9429Z" fill="#9999AD"/></g><mask id="mask1_543_17799" style="mask-type:luminance" maskUnits="userSpaceOnUse" x="31" y="8" width="142" height="55"><path d="M172.279 8.43085H31.7207V62.5691H172.279V8.43085Z" fill="white"/></mask><g mask="url(#mask1_543_17799)"><path d="M60.4947 15.8285H55.5469V34.3229H60.4947V15.8285Z" fill="#9999AD"/></g><mask id="mask2_543_17799" style="mask-type:luminance" maskUnits="userSpaceOnUse" x="31" y="8" width="142" height="55"><path d="M172.279 8.43085H31.7207V62.5691H172.279V8.43085Z" fill="white"/></mask><g mask="url(#mask2_543_17799)"><path d="M77.2358 28.9668L80.2862 32.2094C78.5808 33.9867 76.6113 34.8995 74.3295 34.8995C71.8316 34.8995 69.886 34.2029 68.493 32.8098C67.0999 31.4167 66.4033 29.5433 66.4033 27.1654V20.8004L67.6763 18.0623L66.4033 15.8526V10.8807H71.3512V27.1654C71.3512 29.207 72.408 30.2158 74.4976 30.2158C75.5064 30.2158 76.4191 29.8075 77.2358 28.9668Z" fill="#9999AD"/></g><mask id="mask3_543_17799" style="mask-type:luminance" maskUnits="userSpaceOnUse" x="31" y="8" width="142" height="55"><path d="M172.279 8.43085H31.7207V62.5691H172.279V8.43085Z" fill="white"/></mask><g mask="url(#mask3_543_17799)"><path d="M89.6778 34.9234C86.4833 34.9234 83.8893 33.7465 81.9678 31.4167L85.2583 28.8226C86.9637 30.2397 88.5489 30.9603 90.0621 30.9603C90.9508 30.9603 91.6473 30.7922 92.1277 30.4319C92.6081 30.0716 92.8483 29.6393 92.8483 29.1109C92.8483 28.7025 92.6561 28.3663 92.2718 28.0781C91.8875 27.7898 91.5032 27.5737 91.1189 27.4776C90.7346 27.3575 90.1101 27.1653 89.2695 26.9251C88.3327 26.6369 87.5641 26.4208 87.0117 26.2526C86.4353 26.0845 85.7868 25.7963 85.0422 25.3639C84.2976 24.9556 83.7452 24.4032 83.4089 23.7307C83.0486 23.0581 82.8805 22.2175 82.8805 21.2327C82.8805 19.3833 83.529 17.9181 84.85 16.8373C86.1711 15.7564 87.8043 15.228 89.8219 15.228C92.9443 15.228 95.3462 16.3569 97.0756 18.6387L93.833 21.2807C92.7042 19.9357 91.3831 19.2391 89.894 19.2391C89.1254 19.2391 88.5249 19.4073 88.0926 19.7676C87.6602 20.1278 87.4441 20.5602 87.4441 21.0406C87.4441 21.4489 87.6362 21.7851 87.9965 22.0974C88.3568 22.3856 88.7411 22.6018 89.1254 22.6978C89.5097 22.7939 90.1342 22.9621 90.9748 23.2022C91.7194 23.4184 92.2958 23.5625 92.7042 23.6826C93.1125 23.8027 93.6409 23.9949 94.3374 24.2831C95.01 24.5713 95.5384 24.9076 95.8746 25.2438C96.2109 25.6041 96.5231 26.0605 96.8114 26.6609C97.0996 27.2614 97.2197 27.9339 97.2197 28.7025C97.2197 30.552 96.5472 32.0652 95.1781 33.2181C93.785 34.3469 91.9596 34.9234 89.6778 34.9234Z" fill="#9999AD"/></g><mask id="mask4_543_17799" style="mask-type:luminance" maskUnits="userSpaceOnUse" x="31" y="8" width="142" height="55"><path d="M172.279 8.43085H31.7207V62.5691H172.279V8.43085Z" fill="white"/></mask><g mask="url(#mask4_543_17799)"><path d="M114.681 21.9293C113.336 20.5362 111.775 19.8396 110.069 19.8396C108.652 19.8396 107.451 20.32 106.467 21.3048C105.482 22.2655 104.977 23.5866 104.977 25.2198C104.977 26.733 105.482 27.958 106.515 28.8707C107.523 29.8074 108.772 30.2638 110.213 30.2638C111.991 30.2638 113.576 29.5913 114.921 28.2702L118.02 31.1765C115.882 33.6504 113.24 34.8754 110.069 34.8754C107.163 34.8754 104.785 33.9627 102.912 32.1132C101.038 30.2878 100.102 27.934 100.102 25.0998C100.102 22.2655 101.038 19.9117 102.936 18.0382C104.833 16.1648 107.235 15.2521 110.117 15.2521C113.24 15.2521 115.81 16.453 117.827 18.8549L114.681 21.9293Z" fill="#9999AD"/></g><mask id="mask5_543_17799" style="mask-type:luminance" maskUnits="userSpaceOnUse" x="31" y="8" width="142" height="55"><path d="M172.279 8.43085H31.7207V62.5691H172.279V8.43085Z" fill="white"/></mask><g mask="url(#mask5_543_17799)"><path d="M134.617 15.8285H139.517V34.323H134.617V32.2814C133.176 34.0107 131.254 34.8754 128.876 34.8754C126.258 34.8754 124.049 33.9627 122.247 32.1133C120.446 30.2638 119.533 27.934 119.533 25.0758C119.533 22.2415 120.446 19.8877 122.247 18.0383C124.049 16.1888 126.258 15.2761 128.876 15.2761C131.254 15.2761 133.152 16.1408 134.617 17.8701V15.8285ZM125.946 28.9668C126.955 29.9035 128.156 30.3599 129.573 30.3599C130.99 30.3599 132.215 29.8795 133.272 28.9428C134.329 28.0061 134.833 26.709 134.833 25.0758C134.833 23.4185 134.305 22.1215 133.296 21.1847C132.263 20.272 131.038 19.7916 129.621 19.7916C128.204 19.7916 126.979 20.248 125.97 21.1847C124.961 22.1215 124.433 23.3945 124.433 25.0758C124.433 26.7571 124.937 28.0301 125.946 28.9668Z" fill="#9999AD"/></g><mask id="mask6_543_17799" style="mask-type:luminance" maskUnits="userSpaceOnUse" x="31" y="8" width="142" height="55"><path d="M172.279 8.43085H31.7207V62.5691H172.279V8.43085Z" fill="white"/></mask><g mask="url(#mask6_543_17799)"><path d="M149.581 8.43076H144.633V34.323H149.581V8.43076Z" fill="#9999AD"/></g><mask id="mask7_543_17799" style="mask-type:luminance" maskUnits="userSpaceOnUse" x="31" y="8" width="142" height="55"><path d="M172.279 8.43085H31.7207V62.5691H172.279V8.43085Z" fill="white"/></mask><g mask="url(#mask7_543_17799)"><path d="M172.278 24.3792C172.278 25.1718 172.206 25.9404 172.085 26.685L158.251 26.733C158.587 28.006 159.235 29.0148 160.172 29.8074C161.109 30.6 162.286 30.9843 163.703 30.9843C165.336 30.9843 167.066 30.3118 168.891 28.9908L171.533 31.849C169.467 33.8426 166.801 34.8514 163.535 34.8514C160.532 34.8514 158.107 33.9387 156.233 32.0892C154.36 30.2398 153.423 27.8619 153.423 24.9797C153.423 22.1214 154.336 19.7676 156.185 17.9662C158.01 16.1648 160.364 15.2521 163.247 15.2521C165.985 15.2521 168.194 16.0687 169.828 17.726C171.437 19.4073 172.278 21.617 172.278 24.3792ZM163.223 19.1671C162.046 19.1671 161.013 19.5034 160.124 20.1519C159.235 20.8244 158.635 21.7131 158.323 22.866H167.714C167.474 21.6891 166.945 20.7764 166.153 20.1279C165.312 19.4794 164.351 19.1671 163.223 19.1671Z" fill="#9999AD"/></g><mask id="mask8_543_17799" style="mask-type:luminance" maskUnits="userSpaceOnUse" x="66" y="15" width="12" height="6"><path d="M77.5494 15.8284H66.4287V20.7763H77.5494V15.8284Z" fill="white"/></mask><g mask="url(#mask8_543_17799)"><path d="M77.5494 15.8285H66.4287V20.7764H77.5494V15.8285Z" fill="#E8E8F5"/></g><mask id="mask9_543_17799" style="mask-type:luminance" maskUnits="userSpaceOnUse" x="31" y="8" width="142" height="55"><path d="M172.279 8.43085H31.7207V62.5691H172.279V8.43085Z" fill="white"/></mask><g mask="url(#mask9_543_17799)"><path d="M100.078 51.7126C100.078 48.3019 102.648 45.804 105.939 45.804C108.509 45.804 110.67 47.3652 111.391 49.8151H110.238C109.638 48.0377 107.98 46.8368 105.963 46.8368C103.273 46.8368 101.207 48.9024 101.207 51.7126C101.207 54.5228 103.273 56.5884 105.939 56.5884C107.98 56.5884 109.638 55.3635 110.238 53.6101H111.391C110.694 56.084 108.485 57.6212 105.939 57.6212C102.648 57.6212 100.078 55.1233 100.078 51.7126Z" fill="#9999AD"/></g><mask id="mask10_543_17799" style="mask-type:luminance" maskUnits="userSpaceOnUse" x="31" y="8" width="142" height="55"><path d="M172.279 8.43085H31.7207V62.5691H172.279V8.43085Z" fill="white"/></mask><g mask="url(#mask10_543_17799)"><path d="M124.745 46.0202V57.405H123.64V54.6909C122.752 56.4443 121.022 57.6212 118.885 57.6212C115.69 57.6212 113.48 55.1233 113.48 51.7126C113.48 48.3019 115.714 45.804 118.861 45.804C121.022 45.804 122.752 46.9809 123.64 48.7583V46.0202H124.745ZM123.664 51.7126C123.664 48.9024 121.647 46.8368 119.029 46.8368C116.411 46.8368 114.585 48.8784 114.585 51.7126C114.585 54.5228 116.411 56.5644 119.029 56.5644C121.671 56.5644 123.664 54.5468 123.664 51.7126Z" fill="#9999AD"/></g><mask id="mask11_543_17799" style="mask-type:luminance" maskUnits="userSpaceOnUse" x="31" y="8" width="142" height="55"><path d="M172.279 8.43085H31.7207V62.5691H172.279V8.43085Z" fill="white"/></mask><g mask="url(#mask11_543_17799)"><path d="M139.517 51.7125C139.517 55.1232 137.307 57.6211 134.137 57.6211C131.975 57.6211 130.246 56.4442 129.357 54.6668V62.569H128.252V46.0201H129.357V48.7582C130.246 46.9808 131.975 45.8039 134.137 45.8039C137.283 45.7799 139.517 48.3019 139.517 51.7125ZM138.412 51.7125C138.412 48.9023 136.61 46.8367 133.968 46.8367C131.35 46.8367 129.333 48.8783 129.333 51.7125C129.333 54.5467 131.35 56.5643 133.968 56.5643C136.586 56.5643 138.412 54.5227 138.412 51.7125Z" fill="#9999AD"/></g><mask id="mask12_543_17799" style="mask-type:luminance" maskUnits="userSpaceOnUse" x="31" y="8" width="142" height="55"><path d="M172.279 8.43085H31.7207V62.5691H172.279V8.43085Z" fill="white"/></mask><g mask="url(#mask12_543_17799)"><path d="M143.48 46.0201H142.375V57.405H143.48V46.0201Z" fill="#9999AD"/></g><mask id="mask13_543_17799" style="mask-type:luminance" maskUnits="userSpaceOnUse" x="31" y="8" width="142" height="55"><path d="M172.279 8.43085H31.7207V62.5691H172.279V8.43085Z" fill="white"/></mask><g mask="url(#mask13_543_17799)"><path d="M154.912 56.9727C154.336 57.2609 153.183 57.6452 152.006 57.6452C149.484 57.6452 148.019 55.9639 148.019 53.0816V47.0529H145.737V46.0201H148.019V43.1619H149.124V46.0201H154.696V47.0529H149.124V53.0336C149.124 55.2673 150.109 56.5884 152.198 56.5884C153.063 56.5884 153.928 56.3722 154.72 56.0359L154.912 56.9727Z" fill="#9999AD"/></g><mask id="mask14_543_17799" style="mask-type:luminance" maskUnits="userSpaceOnUse" x="31" y="8" width="142" height="55"><path d="M172.279 8.43085H31.7207V62.5691H172.279V8.43085Z" fill="white"/></mask><g mask="url(#mask14_543_17799)"><path d="M167.667 46.0202V57.405H166.562V54.6909C165.674 56.4443 163.944 57.6212 161.807 57.6212C158.612 57.6212 156.402 55.1233 156.402 51.7126C156.402 48.3019 158.636 45.804 161.783 45.804C163.944 45.804 165.674 46.9809 166.562 48.7583V46.0202H167.667ZM166.61 51.7126C166.61 48.9024 164.593 46.8368 161.975 46.8368C159.357 46.8368 157.531 48.8784 157.531 51.7126C157.531 54.5228 159.357 56.5644 161.975 56.5644C164.593 56.5644 166.61 54.5468 166.61 51.7126Z" fill="#9999AD"/></g><path d="M172.278 41.4566H171.149V57.381H172.278V41.4566Z" fill="#9999AD"/><path d="M77.525 15.8285H72.5771V20.7764H77.525V15.8285Z" fill="#9999AD"/></svg>