<svg width="68" height="69" viewBox="0 0 68 69" fill="none" xmlns="http://www.w3.org/2000/svg"><g clip-path="url(#clip0_4047_51953)"><rect y="0.285706" width="68" height="68" rx="34" fill="#2454E6"/><path d="M34 68.2857C52.7777 68.2857 68 53.0634 68 34.2857C68 15.508 52.7777 0.285706 34 0.285706C15.2223 0.285706 0 15.508 0 34.2857C0 53.0634 15.2223 68.2857 34 68.2857Z" fill="#2454E6"/><path fill-rule="evenodd" clip-rule="evenodd" d="M34.0007 46.7524C27.1154 46.7524 21.534 41.171 21.534 34.2857C21.534 27.4005 27.1154 21.8191 34.0007 21.8191V11.6191C21.4814 11.6191 11.334 21.7665 11.334 34.2857C11.334 46.8032 21.4814 56.9524 34.0007 56.9524C46.5181 56.9524 56.6673 46.805 56.6673 34.2857H46.4673C46.4673 41.171 40.8859 46.7524 34.0007 46.7524Z" fill="#FDFBFC"/><path fill-rule="evenodd" clip-rule="evenodd" d="M34 34.2733H46.4667V21.8066H34V34.2733Z" fill="#17E6A1"/></g><defs><clipPath id="clip0_4047_51953"><rect y="0.285706" width="68" height="68" rx="34" fill="white"/></clipPath></defs></svg>