<svg width="69" height="69" viewBox="0 0 69 69" fill="none" xmlns="http://www.w3.org/2000/svg"><g clip-path="url(#clip0_4047_51968)"><path d="M34.2139 68.4286C52.9915 68.4286 68.2139 53.2063 68.2139 34.4286C68.2139 15.6509 52.9915 0.428589 34.2139 0.428589C15.4362 0.428589 0.213867 15.6509 0.213867 34.4286C0.213867 53.2063 15.4362 68.4286 34.2139 68.4286Z" fill="#F8E19A"/><path d="M43.2118 38.8943C45.8291 38.8943 47.9509 36.7475 47.9509 34.0994C47.9509 31.4513 45.8291 29.3046 43.2118 29.3046C40.5944 29.3046 38.4727 31.4513 38.4727 34.0994C38.4727 36.7475 40.5944 38.8943 43.2118 38.8943Z" fill="black"/><path d="M56.164 41.1822L56.0247 40.964L55.9876 40.9037C55.4677 40.0868 55.3099 39.915 55.0593 39.539C51.592 34.2012 53.5739 30.771 55.1335 29.0211C55.3238 28.8076 55.5002 28.5569 55.6627 28.362C55.9004 28.087 56.1045 27.7847 56.2707 27.4615L56.2986 27.4151C56.6136 26.7859 56.7728 26.0902 56.7627 25.3867C56.6592 24.2321 56.1273 23.158 55.2717 22.3758C54.4162 21.5936 53.2989 21.1598 52.1397 21.1598C50.9804 21.1598 49.8632 21.5936 49.0076 22.3758C48.1521 23.158 47.6202 24.2321 47.5166 25.3867C47.5164 26.1561 47.7113 26.9131 48.0829 27.5868C48.1386 27.6982 48.4032 28.051 48.431 28.1113C48.4874 28.1998 48.5527 28.2822 48.626 28.3573C48.787 28.5569 48.9607 28.7461 49.1458 28.9236C49.6062 29.4358 50.0078 29.9978 50.3434 30.5992C51.0086 31.9625 51.2847 33.483 51.1414 34.9931C50.9981 36.5033 50.4409 37.9446 49.5311 39.1584L48.3799 40.8108C48.3433 40.8585 48.3092 40.9081 48.2778 40.9594L48.25 40.9965C47.7831 41.7361 47.5427 42.596 47.5584 43.4705C47.662 44.6251 48.1938 45.6992 49.0494 46.4814C49.9049 47.2636 51.0222 47.6974 52.1814 47.6974C53.3407 47.6974 54.458 47.2636 55.3135 46.4814C56.1691 45.6992 56.7009 44.6251 56.8045 43.4705C56.8035 42.6655 56.5872 41.8754 56.1779 41.1822H56.164Z" fill="black"/><path d="M38.2156 41.1821L38.081 40.964L38.0392 40.9036C37.5193 40.0867 37.3615 39.915 37.1108 39.539C33.6435 34.2011 35.6255 30.7709 37.1851 29.0211C37.3754 28.8075 37.5518 28.5569 37.7143 28.3619C37.952 28.087 38.1561 27.7847 38.3223 27.4615L38.3502 27.415C38.6603 26.7841 38.8193 26.0897 38.8143 25.3867C38.8277 24.6728 38.6762 23.9654 38.3716 23.3196C38.0671 22.6739 37.6176 22.1071 37.0583 21.6633C36.4989 21.2196 35.8447 20.9108 35.1465 20.7612C34.4484 20.6115 33.7251 20.6249 33.033 20.8003C32.3409 20.9757 31.6986 21.3085 31.1561 21.7726C30.6135 22.2368 30.1854 22.8199 29.9049 23.4765C29.6245 24.1331 29.4993 24.8456 29.5391 25.5585C29.5789 26.2714 29.7826 26.9655 30.1345 27.5868C30.1902 27.6982 30.4547 28.0509 30.4826 28.1113C30.539 28.1997 30.6043 28.2822 30.6775 28.3573C30.8386 28.5569 31.0123 28.7461 31.1974 28.9236C31.6624 29.4353 32.0687 29.9973 32.4089 30.5992C33.0768 31.9606 33.3566 33.4797 33.2174 34.9897C33.0782 36.4997 32.5254 37.9421 31.6198 39.1584C31.3401 39.555 31.0297 39.929 30.6915 40.277L30.6126 40.3559C30.0965 40.8217 29.5298 41.2281 28.923 41.5674C24.0864 43.8743 20.1735 40.6855 20.1735 40.6855L19.779 40.3606C19.4861 40.1328 19.2361 39.8546 19.041 39.539C15.5736 34.2011 17.5556 30.7709 19.1152 29.0211C19.3055 28.8075 19.4819 28.5569 19.6444 28.3619C19.8821 28.087 20.0862 27.7847 20.2524 27.4615L20.2803 27.415C20.6008 26.7869 20.7678 26.0918 20.7676 25.3867C20.6641 24.232 20.1322 23.158 19.2766 22.3758C18.4211 21.5935 17.3038 21.1598 16.1446 21.1598C14.9853 21.1598 13.868 21.5935 13.0125 22.3758C12.157 23.158 11.6251 24.232 11.5215 25.3867C11.5213 26.1561 11.7162 26.913 12.0878 27.5868C12.1435 27.6982 12.408 28.0509 12.4359 28.1113C12.4923 28.1997 12.5576 28.2822 12.6308 28.3573C12.7919 28.5569 12.9656 28.7461 13.1507 28.9236C13.6078 29.4363 14.0064 29.9983 14.339 30.5992C15.0042 31.9625 15.2803 33.4829 15.137 34.9931C14.9937 36.5032 14.4365 37.9446 13.5267 39.1584L12.9372 39.9939C12.4838 40.4273 12.1229 40.9482 11.8764 41.525C11.6299 42.1018 11.5028 42.7225 11.5029 43.3498V43.4565C11.5194 44.3668 11.8031 45.2521 12.3188 46.0023C12.8345 46.7525 13.5595 47.3344 14.4034 47.6758C15.2474 48.0171 16.1731 48.1028 17.0653 47.922C17.9576 47.7413 18.777 47.3021 19.4216 46.6593C19.649 46.5015 19.7975 46.3901 20.0064 46.2555C25.3443 42.7882 28.7745 44.7701 30.529 46.3297C30.6683 46.455 30.8168 46.5757 30.9653 46.6871C31.6141 47.3232 32.4353 47.7549 33.3271 47.9287C34.2189 48.1025 35.1421 48.0107 35.9822 47.6648C36.8224 47.3189 37.5425 46.734 38.0534 45.9826C38.5642 45.2312 38.8433 44.3465 38.8561 43.438C38.8551 42.633 38.6388 41.8429 38.2295 41.1497L38.2156 41.1821Z" fill="black"/></g><defs><clipPath id="clip0_4047_51968"><rect x="0.213867" y="0.428589" width="68" height="68" rx="34" fill="white"/></clipPath></defs></svg>