<svg width="68" height="68" viewBox="0 0 68 68" fill="none" xmlns="http://www.w3.org/2000/svg"><g clip-path="url(#clip0_3730_29528)"><path d="M34 68C52.7777 68 68 52.7777 68 34C68 15.2223 52.7777 0 34 0C15.2223 0 0 15.2223 0 34C0 52.7777 15.2223 68 34 68Z" fill="white"/><mask id="mask0_3730_29528" style="mask-type:luminance" maskUnits="userSpaceOnUse" x="11" y="11" width="46" height="46"><path d="M56.6668 11.334H11.3335V56.6673H56.6668V11.334Z" fill="white"/></mask><g mask="url(#mask0_3730_29528)"><path d="M55.9366 39.7414L46.1335 22.7377C43.9847 19.1927 38.7442 19.1564 36.6696 22.8882L26.3773 40.5719C24.4551 43.8141 26.8306 47.885 30.6765 47.885H51.2998C55.182 47.885 58.0854 43.6999 55.9366 39.7414Z" fill="#3156AA"/><path d="M41.7978 41.0614L41.194 40.006C40.6282 39.0251 39.3843 36.9143 39.3843 36.9143L31.09 22.511C28.9412 19.3068 23.8513 19.0421 21.7025 23.0767L12.0501 39.7794C10.0518 43.2865 12.4273 47.847 16.763 47.885H37.2735H46.0211H51.2234C45.9087 47.9229 44.2115 45.1703 41.7978 41.0614Z" fill="#1972E2"/><path d="M41.7987 41.0612L41.195 40.0058C40.6291 39.0246 39.385 36.914 39.385 36.914L34.0303 27.4883L26.3382 40.6096C24.4161 43.8517 26.7916 47.9247 30.6357 47.9247H37.2345H45.9822H51.2227C45.8697 47.8847 44.2105 45.1701 41.7987 41.0612Z" fill="url(#paint0_linear_3730_29528)"/></g></g><defs><linearGradient id="paint0_linear_3730_29528" x1="24.0922" y1="34.657" x2="46.4327" y2="43.4412" gradientUnits="userSpaceOnUse"><stop stop-color="#264CA2" stop-opacity="0"/><stop offset="1" stop-color="#234588"/></linearGradient><clipPath id="clip0_3730_29528"><rect width="68" height="68" fill="white"/></clipPath></defs></svg>