<svg xmlns="http://www.w3.org/2000/svg" width="33" height="32" viewBox="0 0 33 32" fill="none"><g clip-path="url(#clip0_8727_53155)"><path d="M32.8984 16C32.8984 24.8375 25.7359 32 16.8984 32C8.06094 32 0.898438 24.8375 0.898438 16C0.898438 7.1625 8.06094 0 16.8984 0C25.7359 0 32.8984 7.1625 32.8984 16Z" fill="#FFD15C"/><path d="M12.9922 9.51866C12.3422 9.61241 12.7047 10.1687 12.7047 10.1687L12.6859 10.3249C13.6172 11.9312 15.1547 13.6187 16.7234 14.7437C17.8797 15.5687 18.7422 16.7874 19.1609 18.1749C19.5734 19.5437 19.4984 20.9624 18.9609 22.0624C18.3109 23.3874 17.0797 24.1562 15.5047 24.2312C13.9359 24.3062 12.0734 23.6874 9.96719 22.3937C9.94844 22.4437 9.92344 22.4937 9.89844 22.5374C11.7234 24.4187 13.8359 25.5437 16.0297 25.7999C18.2484 26.0624 20.5234 25.4374 22.4484 24.0562C22.3984 24.0562 22.3609 24.0437 22.3297 24.0249C28.8047 18.6749 18.2047 8.77491 12.9922 9.51866Z" fill="white"/><path d="M29.8121 16.7121C29.8058 16.5933 29.7996 16.4496 29.7746 16.2808C29.6933 15.6246 29.4308 14.6183 28.6683 13.5496C28.6308 13.4996 28.5933 13.4496 28.5558 13.3996C28.5496 13.3871 28.5371 13.3746 28.5308 13.3621C28.4996 13.3183 28.4621 13.2746 28.4308 13.2308L28.4246 13.2246C28.3871 13.1808 28.3496 13.1308 28.3121 13.0871C28.3058 13.0746 28.2933 13.0683 28.2871 13.0558C28.2558 13.0183 28.2183 12.9746 28.1871 12.9371C28.1808 12.9308 28.1808 12.9308 28.1746 12.9246C28.1371 12.8808 28.0996 12.8433 28.0621 12.7996C28.0558 12.7933 28.0433 12.7808 28.0371 12.7746C28.0058 12.7371 27.9746 12.7058 27.9433 12.6746C27.9371 12.6683 27.9308 12.6621 27.9308 12.6558C27.8933 12.6183 27.8558 12.5808 27.8246 12.5496C27.8183 12.5433 27.8121 12.5371 27.7996 12.5246C27.7683 12.4933 27.7371 12.4621 27.7058 12.4371C27.6996 12.4308 27.6933 12.4246 27.6871 12.4183C27.6496 12.3871 27.6183 12.3558 27.5808 12.3246C27.5746 12.3183 27.5683 12.3121 27.5621 12.3058C27.5308 12.2808 27.4996 12.2558 27.4746 12.2308C27.4683 12.2246 27.4621 12.2183 27.4558 12.2121C27.4246 12.1808 27.3871 12.1558 27.3558 12.1308C27.3496 12.1246 27.3433 12.1183 27.3371 12.1121C27.3121 12.0871 27.2808 12.0683 27.2558 12.0433C27.2496 12.0371 27.2371 12.0308 27.2308 12.0246C27.1996 11.9996 27.1683 11.9746 27.1371 11.9558C27.1308 11.9496 27.1246 11.9433 27.1183 11.9433C27.0933 11.9246 27.0683 11.9058 27.0433 11.8871C27.0371 11.8808 27.0246 11.8746 27.0183 11.8683C26.9871 11.8496 26.9621 11.8308 26.9308 11.8058C26.9246 11.7996 26.9183 11.7933 26.9058 11.7933C26.8808 11.7808 26.8621 11.7621 26.8433 11.7496C26.8308 11.7433 26.8246 11.7371 26.8121 11.7308C26.7871 11.7183 26.7621 11.6996 26.7433 11.6871C26.7308 11.6808 26.7183 11.6746 26.7121 11.6683C26.6933 11.6558 26.6808 11.6496 26.6621 11.6371C26.6496 11.6308 26.6371 11.6246 26.6246 11.6183C26.6121 11.6121 26.5933 11.5996 26.5808 11.5933C26.5621 11.5808 26.5433 11.5683 26.5183 11.5621C26.5058 11.5558 26.4996 11.5496 26.4871 11.5433C26.4746 11.5371 26.4621 11.5308 26.4433 11.5246C26.4371 11.5183 26.4308 11.5183 26.4246 11.5121C26.3996 11.4996 26.3683 11.4808 26.3433 11.4683H26.3371C26.1683 11.1683 25.9808 10.8683 25.7808 10.5683C23.4496 7.15585 20.8933 5.4996 17.9746 5.49335H17.9621C16.7246 5.49335 15.5933 5.7746 14.6496 6.0496C14.3808 6.13085 14.0996 6.2121 13.8308 6.2996C13.1433 6.5121 12.4933 6.71835 11.9371 6.80585C11.5871 6.8621 11.3121 6.99335 11.1183 7.19335C10.9433 7.38085 10.8371 7.6371 10.8058 7.9496C10.7433 8.55585 10.9621 9.3746 11.4371 10.3121C12.3933 12.2121 14.2246 14.3058 16.0996 15.6496C16.3183 15.8058 16.5183 15.9746 16.7058 16.1621C16.6683 16.1683 16.6308 16.1746 16.5871 16.1808C15.1183 16.3933 14.3496 17.9683 14.0433 18.8246C13.9621 19.0496 14.1808 19.2496 14.4058 19.1683C15.3183 18.8621 17.1746 18.3621 18.2183 19.0058C18.2246 19.0058 18.2371 18.9996 18.2433 18.9996C18.4308 19.9371 18.3433 20.8621 17.9871 21.5808C17.5183 22.5246 16.6246 23.0808 15.4683 23.1371C14.1058 23.2058 12.4308 22.6246 10.4871 21.4121L10.4558 21.3933C10.4371 21.3871 10.4183 21.3746 10.4058 21.3621C11.9183 19.6433 11.0246 16.9933 10.6746 16.1246C10.6308 16.0121 10.4683 16.0121 10.4058 16.1183C9.59333 17.4996 7.91833 17.3933 7.94958 19.0371C7.94958 19.0371 7.94958 19.0371 7.94958 19.0308C6.67458 17.9933 5.72458 19.3746 4.13708 19.1683C4.01208 19.1496 3.91833 19.2746 3.98083 19.3808C4.46208 20.2121 6.07458 22.6496 8.45583 22.3746L8.34333 22.4558L8.76833 22.9246C10.8496 25.2183 13.3246 26.5933 15.9308 26.8996C16.3058 26.9433 16.6808 26.9683 17.0558 26.9683C19.2371 26.9683 21.4058 26.2371 23.2683 24.8496C25.4058 23.2621 26.8871 21.0183 27.4433 18.5371C27.6308 17.7121 27.7058 16.8871 27.6746 16.0683C28.1433 15.8808 28.6558 16.0871 29.0621 16.3621C29.0683 16.3621 29.0683 16.3683 29.0746 16.3683C29.0933 16.3808 29.1058 16.3933 29.1246 16.3996C29.1308 16.3996 29.1308 16.4058 29.1371 16.4058C29.1871 16.4371 29.2308 16.4746 29.2746 16.5058C29.2808 16.5121 29.2933 16.5183 29.2996 16.5246C29.3121 16.5308 29.3183 16.5433 29.3308 16.5496C29.3433 16.5558 29.3496 16.5683 29.3621 16.5746C29.3683 16.5808 29.3808 16.5871 29.3871 16.5996C29.4058 16.6121 29.4246 16.6308 29.4371 16.6433C29.4433 16.6496 29.4496 16.6558 29.4558 16.6558C29.4683 16.6683 29.4808 16.6808 29.4933 16.6871C29.4996 16.6933 29.5058 16.6996 29.5121 16.7058C29.5246 16.7183 29.5371 16.7246 29.5496 16.7371C29.5558 16.7433 29.5621 16.7433 29.5621 16.7496C29.5746 16.7621 29.5933 16.7808 29.6058 16.7933C29.6121 16.7996 29.6183 16.7996 29.6183 16.8058C29.6496 16.8308 29.6871 16.8371 29.7183 16.8371C29.7558 16.8433 29.8183 16.7871 29.8121 16.7121ZM22.3308 24.0308C22.3621 24.0496 22.3996 24.0558 22.4496 24.0621C20.5246 25.4496 18.2496 26.0683 16.0308 25.8058C13.8308 25.5496 11.7246 24.4246 9.89958 22.5433C9.92458 22.4933 9.94958 22.4496 9.96833 22.3996C12.0746 23.6933 13.9371 24.3121 15.5058 24.2371C17.0808 24.1621 18.3121 23.3871 18.9621 22.0683C19.5058 20.9683 19.5746 19.5558 19.1621 18.1808C18.7433 16.7933 17.8808 15.5746 16.7246 14.7496C15.1496 13.6246 13.6183 11.9371 12.6871 10.3308L12.7058 10.1746C12.7058 10.1746 12.3433 9.61835 12.9933 9.5246C18.2058 8.7746 28.8058 18.6746 22.3308 24.0308Z" fill="black"/><path d="M18.4176 9.15566C18.2364 8.89941 17.8739 8.21191 18.9989 8.21191C20.1239 8.21191 21.8364 9.48066 22.1864 9.94941C22.0801 10.2369 21.3551 10.2994 20.9926 10.2744C20.6301 10.2494 20.0176 10.1869 19.5426 9.94941C19.0739 9.72441 18.5989 9.41191 18.4176 9.15566Z" fill="white"/></g><defs><clipPath id="clip0_8727_53155"><rect width="32" height="32" fill="white" transform="translate(0.900391)"/></clipPath></defs></svg>