<svg width="69" height="69" viewBox="0 0 69 69" fill="none" xmlns="http://www.w3.org/2000/svg"><g clip-path="url(#clip0_4047_51950)"><path d="M34.659 68.2857C53.4064 68.2857 68.6041 53.0634 68.6041 34.2857C68.6041 15.508 53.4064 0.285706 34.659 0.285706C15.9116 0.285706 0.713867 15.508 0.713867 34.2857C0.713867 53.0634 15.9116 68.2857 34.659 68.2857Z" fill="#44B7E7"/><g clip-path="url(#clip1_4047_51950)"><path d="M55.5211 43.0534C55.5211 50.0607 46.1989 55.7239 34.7583 55.7239C23.3177 55.7239 13.8818 50.0607 13.8818 43.0534V39.7642H55.6641V43.0534H55.5211Z" fill="#FEDC90"/><path fill-rule="evenodd" clip-rule="evenodd" d="M21.7834 18.2819C21.2042 15.6884 23.2314 13.2389 25.8377 13.2389C28.1544 13.2389 30.3104 15.112 30.3104 17.4174V26.9271C31.7584 26.783 32.9327 26.6389 34.5255 26.6389C35.9734 26.6389 37.4214 26.6717 38.8693 26.8158L38.8693 17.4174C38.8693 15.112 40.7517 13.2389 43.0684 13.2389C45.6748 13.2389 47.7019 15.6884 47.2675 18.2819L45.3852 28.6561C51.4666 30.9615 55.6657 34.9959 55.6657 39.6067C55.6657 46.6669 46.2539 52.4304 34.6702 52.4304C23.0866 52.4304 13.6748 46.6669 13.6748 39.6067C13.6748 34.9959 17.7291 30.9615 23.8105 28.6561L21.7834 18.2819Z" fill="#D1884F"/><path fill-rule="evenodd" clip-rule="evenodd" d="M20.1993 18.7694C19.4842 15.0513 22.3444 11.6191 26.0626 11.6191C29.3517 11.6191 32.0689 14.3362 32.0689 17.6254V25.0618C32.9269 25.0618 33.785 24.9188 34.643 24.9188C35.5011 24.9188 36.2161 24.9188 37.0741 25.0618V17.6254C37.0741 14.3362 39.7913 11.6191 43.0804 11.6191C46.7986 11.6191 49.6588 15.0513 49.0868 18.7694L47.5137 27.4929C53.091 29.924 57.3812 34.2142 57.3812 39.5055V42.7947C57.3812 47.2279 54.521 50.9461 50.3738 53.3772C46.2266 55.9514 40.7923 57.3814 34.643 57.3814C28.4937 57.3814 23.0594 55.9514 18.9122 53.3772C14.908 50.9461 12.0479 47.2279 12.0479 42.7947V39.5055C12.0479 34.2142 16.1951 29.924 21.7724 27.4929L20.1993 18.7694ZM45.3686 28.637L47.2277 18.3404C47.6567 15.7663 45.7976 13.3352 43.0804 13.3352C40.7923 13.3352 38.9332 15.1943 38.9332 17.4824V26.9209C38.3612 26.7779 37.6462 26.7779 37.0741 26.7779C36.2161 26.7779 35.5011 26.6349 34.643 26.6349C33.785 26.6349 32.9269 26.6349 32.0689 26.7779C31.4969 26.7779 30.7818 26.9209 30.2098 26.9209V17.6254C30.2098 15.3373 28.3507 13.4782 26.0626 13.4782C23.4884 13.4782 21.4863 15.9093 22.0584 18.4834L23.9175 28.78C17.9112 31.0681 13.9069 35.0723 13.9069 39.6485V42.9377C13.9069 49.9451 23.2024 55.6653 34.643 55.6653C46.0836 55.6653 55.3791 49.9451 55.3791 42.9377V39.6485C55.5221 34.9293 51.5179 30.9251 45.3686 28.637Z" fill="#633001"/><path d="M28.9229 38.6474C28.9229 40.5065 27.9219 42.0796 26.6348 42.0796C25.3477 42.0796 24.3467 40.5065 24.3467 38.6474C24.3467 36.7884 25.3477 35.2153 26.6348 35.2153C27.9219 35.2153 28.9229 36.7884 28.9229 38.6474Z" fill="#633001"/><path d="M44.7969 38.6474C44.7969 40.5065 43.7959 42.0796 42.5088 42.0796C41.2218 42.0796 40.2207 40.5065 40.2207 38.6474C40.2207 36.7884 41.2218 35.2153 42.5088 35.2153C43.7959 35.2153 44.7969 36.7884 44.7969 38.6474Z" fill="#633001"/></g></g><defs><clipPath id="clip0_4047_51950"><rect x="0.713867" y="0.285706" width="68" height="68" rx="34" fill="white"/></clipPath><clipPath id="clip1_4047_51950"><rect width="45.3333" height="45.7624" fill="white" transform="translate(12.0479 11.6191)"/></clipPath></defs></svg>